<svg width="637" height="368" viewBox="0 0 637 368" fill="none" xmlns="http://www.w3.org/2000/svg">
<path d="M112.166 14L118.406 -9.53674e-07H121.606L127.866 14H124.466L119.346 1.64H120.626L115.486 14H112.166ZM115.286 11L116.146 8.54H123.346L124.226 11H115.286ZM127.985 11.06V8.88L134.585 -9.53674e-07H137.985L131.525 8.88L129.945 8.42H140.965V11.06H127.985ZM135.525 14V11.06L135.625 8.42V5.8H138.685V14H135.525Z" fill="#0F1D41"/>
<path d="M9.25 232.065L8.638 232.065L5.218 228.573C4.906 228.253 4.634 228.013 4.402 227.853C4.162 227.693 3.938 227.585 3.73 227.529C3.522 227.473 3.326 227.445 3.142 227.445C2.654 227.445 2.27 227.613 1.99 227.949C1.71 228.277 1.57 228.765 1.57 229.413C1.57 229.909 1.646 230.349 1.798 230.733C1.95 231.109 2.186 231.433 2.506 231.705L1.978 232.317C1.594 231.989 1.298 231.569 1.09 231.057C0.882001 230.545 0.778001 229.973 0.778001 229.341C0.778001 228.773 0.870001 228.281 1.054 227.865C1.23 227.449 1.49 227.129 1.834 226.905C2.178 226.673 2.582 226.557 3.046 226.557C3.318 226.557 3.586 226.597 3.85 226.677C4.114 226.749 4.394 226.885 4.69 227.085C4.978 227.277 5.306 227.561 5.674 227.937L8.818 231.141L8.482 231.381L8.482 226.173L9.25 226.173L9.25 232.065ZM0.778001 222.473C0.778001 221.729 0.946001 221.101 1.282 220.589C1.61 220.077 2.086 219.689 2.71 219.425C3.334 219.161 4.09 219.029 4.978 219.029C5.922 219.029 6.718 219.193 7.366 219.521C8.014 219.841 8.502 220.289 8.83 220.865C9.158 221.441 9.322 222.109 9.322 222.869C9.322 223.245 9.286 223.605 9.214 223.949C9.142 224.285 9.026 224.589 8.866 224.861L8.17 224.513C8.314 224.297 8.418 224.049 8.482 223.769C8.538 223.481 8.566 223.185 8.566 222.881C8.566 221.977 8.278 221.257 7.702 220.721C7.126 220.177 6.266 219.905 5.122 219.905C4.938 219.905 4.718 219.917 4.462 219.941C4.206 219.957 3.95 220.001 3.694 220.073L3.922 219.773C4.338 219.853 4.694 220.025 4.99 220.289C5.278 220.545 5.498 220.865 5.65 221.249C5.802 221.625 5.878 222.045 5.878 222.509C5.878 223.061 5.774 223.553 5.566 223.985C5.358 224.409 5.066 224.741 4.69 224.981C4.314 225.221 3.87 225.341 3.358 225.341C2.83 225.341 2.374 225.217 1.99 224.969C1.606 224.721 1.31 224.381 1.102 223.949C0.886001 223.509 0.778001 223.017 0.778001 222.473ZM1.51 222.437C1.51 222.837 1.586 223.193 1.738 223.505C1.882 223.809 2.09 224.049 2.362 224.225C2.634 224.401 2.958 224.489 3.334 224.489C3.886 224.489 4.326 224.301 4.654 223.925C4.982 223.541 5.146 223.025 5.146 222.377C5.146 221.945 5.066 221.569 4.906 221.249C4.746 220.921 4.526 220.669 4.246 220.493C3.966 220.309 3.654 220.217 3.31 220.217C2.998 220.217 2.706 220.301 2.434 220.469C2.162 220.637 1.942 220.885 1.774 221.213C1.598 221.541 1.51 221.949 1.51 222.437ZM9.25 216.394L1.234 212.77L1.618 212.506L1.618 217.702L1.198 217.258L3.19 217.258L3.19 218.11L0.850001 218.11L0.85 211.942L1.462 211.942L9.25 215.458L9.25 216.394ZM9.25 207.075L2.95 207.075L2.95 206.211L7.786 203.355L7.786 203.715L2.95 200.811L2.95 200.019L9.25 200.019L9.25 200.799L3.922 200.799L3.994 200.643L8.482 203.355L8.482 203.739L3.946 206.475L3.91 206.295L9.25 206.295L9.25 207.075ZM9.25 197.595L2.95 197.595L2.95 196.731L7.786 193.875L7.786 194.235L2.95 191.331L2.95 190.539L9.25 190.539L9.25 191.319L3.922 191.319L3.994 191.163L8.482 193.875L8.482 194.259L3.946 196.995L3.91 196.815L9.25 196.815L9.25 197.595Z" fill="#333333"/>
<rect width="219" height="311" transform="translate(17.25 57)" fill="#BABABA"/>
<circle cx="81.75" cy="119.5" r="43.5" fill="white"/>
<circle opacity="0.25" cx="81.75" cy="119.5" r="32" fill="white" stroke="#333333" stroke-dasharray="4 4"/>
<circle cx="174.75" cy="304.5" r="43.5" fill="white"/>
<circle opacity="0.25" cx="174.75" cy="304.5" r="32" fill="white" stroke="#333333" stroke-dasharray="4 4"/>
<path d="M175.25 77L190.73 93.1879L212.489 98.5L206.21 120L212.489 141.5L190.73 146.812L175.25 163L159.77 146.812L138.011 141.5L144.29 120L138.011 98.5L159.77 93.1879L175.25 77Z" fill="white"/>
<path opacity="0.25" d="M171.362 92.5881L174.288 89.5294L174.649 89.8749L175.75 88.7235L176.851 89.8749L177.213 89.5294L180.138 92.5881L179.776 92.9337L182.701 95.9924L183.062 95.6469L185.987 98.7056L185.626 99.0512L187.089 100.581L187.19 100.686L187.331 100.721L189.387 101.223L189.506 100.737L193.617 101.741L193.499 102.226L197.61 103.23L197.729 102.744L201.84 103.748L201.722 104.234L203.269 104.612L202.823 106.141L203.303 106.281L202.116 110.344L201.636 110.204L200.45 114.266L200.93 114.406L199.743 118.469L199.263 118.329L198.67 120.36L198.629 120.5L198.67 120.64L199.263 122.671L199.743 122.531L200.93 126.594L200.45 126.734L201.636 130.796L202.116 130.656L203.303 134.719L202.823 134.859L203.269 136.388L201.722 136.766L201.84 137.252L197.729 138.256L197.61 137.77L193.499 138.774L193.617 139.259L189.506 140.263L189.387 139.777L187.331 140.279L187.19 140.314L187.089 140.419L185.626 141.949L185.987 142.294L183.062 145.353L182.701 145.008L179.776 148.066L180.138 148.412L177.213 151.471L176.851 151.125L175.75 152.277L174.649 151.125L174.288 151.471L171.363 148.412L171.724 148.066L168.799 145.008L168.438 145.353L165.512 142.294L165.874 141.949L164.411 140.419L164.31 140.314L164.169 140.279L162.113 139.777L161.994 140.263L157.883 139.259L158.001 138.774L153.89 137.77L153.771 138.256L149.66 137.252L149.778 136.766L148.231 136.388L148.677 134.859L148.197 134.719L149.384 130.656L149.864 130.796L151.05 126.734L150.57 126.594L151.757 122.531L152.237 122.671L152.83 120.64L152.871 120.5L152.83 120.36L152.237 118.329L151.757 118.469L150.57 114.406L151.05 114.266L149.864 110.204L149.384 110.344L148.197 106.281L148.677 106.141L148.231 104.612L149.778 104.234L149.66 103.748L153.771 102.744L153.89 103.23L158.001 102.226L157.883 101.741L161.994 100.737L162.113 101.223L164.169 100.721L164.31 100.686L164.411 100.581L165.874 99.0512L165.512 98.7056L168.438 95.6469L168.799 95.9924L171.724 92.9337L171.362 92.5881Z" fill="white" stroke="#333333" stroke-dasharray="4 4"/>
<path d="M82.25 262L97.73 278.188L119.489 283.5L113.21 305L119.489 326.5L97.73 331.812L82.25 348L66.77 331.812L45.0109 326.5L51.29 305L45.0109 283.5L66.77 278.188L82.25 262Z" fill="white"/>
<path opacity="0.25" d="M78.3625 277.588L81.2875 274.529L81.6489 274.875L82.75 273.723L83.8511 274.875L84.2125 274.529L87.1375 277.588L86.7761 277.934L89.7011 280.992L90.0625 280.647L92.9875 283.706L92.6261 284.051L94.0886 285.581L94.1896 285.686L94.3314 285.721L96.3871 286.223L96.5057 285.737L100.617 286.741L100.499 287.226L104.61 288.23L104.729 287.744L108.84 288.748L108.722 289.234L110.269 289.612L109.823 291.141L110.303 291.281L109.116 295.344L108.636 295.204L107.45 299.266L107.93 299.406L106.743 303.469L106.263 303.329L105.67 305.36L105.629 305.5L105.67 305.64L106.263 307.671L106.743 307.531L107.93 311.594L107.45 311.734L108.636 315.796L109.116 315.656L110.303 319.719L109.823 319.859L110.269 321.388L108.722 321.766L108.84 322.252L104.729 323.256L104.61 322.77L100.499 323.774L100.617 324.259L96.5057 325.263L96.3871 324.777L94.3314 325.279L94.1896 325.314L94.0886 325.419L92.6261 326.949L92.9875 327.294L90.0625 330.353L89.7011 330.008L86.7761 333.066L87.1375 333.412L84.2125 336.471L83.8511 336.125L82.75 337.277L81.6489 336.125L81.2875 336.471L78.3625 333.412L78.7239 333.066L75.7989 330.008L75.4375 330.353L72.5125 327.294L72.8739 326.949L71.4114 325.419L71.3104 325.314L71.1686 325.279L69.1129 324.777L68.9943 325.263L64.8828 324.259L65.0014 323.774L60.8899 322.77L60.7714 323.256L56.6599 322.252L56.7785 321.766L55.2307 321.388L55.6774 319.859L55.1974 319.719L56.3839 315.656L56.8638 315.796L58.0503 311.734L57.5703 311.594L58.7568 307.531L59.2367 307.671L59.83 305.64L59.8709 305.5L59.83 305.36L59.2367 303.329L58.7568 303.469L57.5703 299.406L58.0503 299.266L56.8638 295.204L56.3839 295.344L55.1974 291.281L55.6774 291.141L55.2307 289.612L56.7785 289.234L56.6599 288.748L60.7714 287.744L60.8899 288.23L65.0014 287.226L64.8828 286.741L68.9943 285.737L69.1129 286.223L71.1686 285.721L71.3104 285.686L71.4114 285.581L72.8739 284.051L72.5125 283.706L75.4375 280.647L75.7989 280.992L78.7239 277.934L78.3625 277.588Z" fill="white" stroke="#333333" stroke-dasharray="4 4"/>
<path d="M37.3806 218.665L65.0264 172.875L117.118 185.018L121.667 238.312L72.3865 259.107L37.3806 218.665Z" fill="white"/>
<path opacity="0.25" d="M51.3127 222.793L48.6199 219.682L48.998 219.355L47.8893 218.074L48.7649 216.624L48.3368 216.366L50.4634 212.843L50.8915 213.102L53.0181 209.579L52.59 209.321L54.7166 205.799L55.1447 206.057L57.2713 202.535L56.8432 202.276L58.9698 198.754L59.3979 199.013L61.5245 195.49L61.0964 195.232L63.223 191.709L63.6511 191.968L65.7777 188.446L65.3496 188.187L67.4762 184.665L67.9043 184.923L68.7798 183.473L70.4296 183.858L70.5431 183.371L74.5501 184.305L74.4366 184.792L78.4437 185.726L78.5572 185.239L82.5643 186.173L82.4508 186.66L86.4578 187.594L86.5714 187.107L90.5784 188.041L90.4649 188.528L94.472 189.462L94.5855 188.975L98.5926 189.909L98.479 190.396L102.486 191.33L102.6 190.843L106.607 191.777L106.493 192.264L108.143 192.649L108.287 194.337L108.785 194.294L109.135 198.394L108.637 198.436L108.987 202.536L109.485 202.493L109.835 206.593L109.337 206.635L109.687 210.735L110.185 210.693L110.535 214.792L110.037 214.835L110.386 218.934L110.885 218.892L111.235 222.991L110.736 223.034L111.086 227.133L111.584 227.091L111.934 231.19L111.436 231.233L111.58 232.921L110.019 233.579L110.214 234.04L106.423 235.64L106.229 235.179L102.438 236.779L102.632 237.239L98.8414 238.839L98.647 238.378L94.8562 239.978L95.0506 240.439L91.2598 242.038L91.0654 241.578L87.2746 243.177L87.469 243.638L83.6782 245.237L83.4838 244.777L79.693 246.376L79.8873 246.837L76.0965 248.437L75.9021 247.976L74.3414 248.635L73.2328 247.354L72.8547 247.681L70.162 244.57L70.54 244.243L67.8473 241.132L67.4692 241.459L64.7765 238.348L65.1545 238.021L62.4618 234.91L62.0837 235.237L59.3909 232.126L59.769 231.799L57.0762 228.688L56.6982 229.015L54.0054 225.904L54.3835 225.577L51.6907 222.466L51.3127 222.793Z" fill="white" stroke="#333333" stroke-dasharray="4 4"/>
<rect x="137.25" y="172" width="83" height="82" rx="13.7517" fill="white"/>
<rect opacity="0.25" x="147.75" y="182.5" width="63" height="62" rx="13.2517" fill="white" stroke="#333333" stroke-dasharray="4 4"/>
<path d="M107.116 47V46.388L110.608 42.968C110.928 42.656 111.168 42.384 111.328 42.152C111.488 41.912 111.596 41.688 111.652 41.48C111.708 41.272 111.736 41.076 111.736 40.892C111.736 40.404 111.568 40.02 111.232 39.74C110.904 39.46 110.416 39.32 109.768 39.32C109.272 39.32 108.832 39.396 108.448 39.548C108.072 39.7 107.748 39.936 107.476 40.256L106.864 39.728C107.192 39.344 107.612 39.048 108.124 38.84C108.636 38.632 109.208 38.528 109.84 38.528C110.408 38.528 110.9 38.62 111.316 38.804C111.732 38.98 112.052 39.24 112.276 39.584C112.508 39.928 112.624 40.332 112.624 40.796C112.624 41.068 112.584 41.336 112.504 41.6C112.432 41.864 112.296 42.144 112.096 42.44C111.904 42.728 111.62 43.056 111.244 43.424L108.04 46.568L107.8 46.232H113.008V47H107.116ZM115.557 47V38.96L115.941 39.368H113.577V38.6H116.421V47H115.557ZM121.777 47.072C121.129 47.072 120.553 46.904 120.049 46.568C119.545 46.224 119.149 45.736 118.861 45.104C118.573 44.464 118.429 43.696 118.429 42.8C118.429 41.904 118.573 41.14 118.861 40.508C119.149 39.868 119.545 39.38 120.049 39.044C120.553 38.7 121.129 38.528 121.777 38.528C122.425 38.528 123.001 38.7 123.505 39.044C124.009 39.38 124.405 39.868 124.693 40.508C124.989 41.14 125.137 41.904 125.137 42.8C125.137 43.696 124.989 44.464 124.693 45.104C124.405 45.736 124.009 46.224 123.505 46.568C123.001 46.904 122.425 47.072 121.777 47.072ZM121.777 46.28C122.273 46.28 122.705 46.148 123.073 45.884C123.441 45.612 123.729 45.22 123.937 44.708C124.145 44.188 124.249 43.552 124.249 42.8C124.249 42.048 124.145 41.416 123.937 40.904C123.729 40.384 123.441 39.992 123.073 39.728C122.705 39.456 122.273 39.32 121.777 39.32C121.297 39.32 120.869 39.456 120.493 39.728C120.117 39.992 119.825 40.384 119.617 40.904C119.409 41.416 119.305 42.048 119.305 42.8C119.305 43.552 119.409 44.188 119.617 44.708C119.825 45.22 120.117 45.612 120.493 45.884C120.869 46.148 121.297 46.28 121.777 46.28ZM130.103 47V40.7H130.967L133.823 45.536H133.463L136.367 40.7H137.159V47H136.379V41.672L136.535 41.744L133.823 46.232H133.439L130.703 41.696L130.883 41.66V47H130.103ZM139.583 47V40.7H140.447L143.303 45.536H142.943L145.847 40.7H146.639V47H145.859V41.672L146.015 41.744L143.303 46.232H142.919L140.183 41.696L140.363 41.66V47H139.583Z" fill="#333333"/>
<path d="M371.466 109L377.706 95H380.906L387.166 109H383.766L378.646 96.64H379.926L374.786 109H371.466ZM374.586 106L375.446 103.54H382.646L383.526 106H374.586ZM392.499 109.24C391.526 109.24 390.559 109.113 389.599 108.86C388.652 108.593 387.839 108.22 387.159 107.74L388.439 105.26C388.972 105.647 389.586 105.953 390.279 106.18C390.986 106.407 391.699 106.52 392.419 106.52C393.232 106.52 393.872 106.36 394.339 106.04C394.806 105.72 395.039 105.273 395.039 104.7C395.039 104.34 394.946 104.02 394.759 103.74C394.572 103.46 394.239 103.247 393.759 103.1C393.292 102.953 392.632 102.88 391.779 102.88H388.199L388.919 95H397.459V97.6H390.079L391.759 96.12L391.259 101.74L389.579 100.26H392.539C393.926 100.26 395.039 100.453 395.879 100.84C396.732 101.213 397.352 101.727 397.739 102.38C398.126 103.033 398.319 103.773 398.319 104.6C398.319 105.427 398.112 106.193 397.699 106.9C397.286 107.593 396.646 108.16 395.779 108.6C394.926 109.027 393.832 109.24 392.499 109.24Z" fill="#0F1D41"/>
<path d="M292.25 279.134L291.638 279.134L288.218 275.642C287.906 275.322 287.634 275.082 287.402 274.922C287.162 274.762 286.938 274.654 286.73 274.598C286.522 274.542 286.326 274.514 286.142 274.514C285.654 274.514 285.27 274.682 284.99 275.018C284.71 275.346 284.57 275.834 284.57 276.482C284.57 276.978 284.646 277.418 284.798 277.802C284.95 278.178 285.186 278.502 285.506 278.774L284.978 279.386C284.594 279.058 284.298 278.638 284.09 278.126C283.882 277.614 283.778 277.042 283.778 276.41C283.778 275.842 283.87 275.35 284.054 274.934C284.23 274.518 284.49 274.198 284.834 273.974C285.178 273.742 285.582 273.626 286.046 273.626C286.318 273.626 286.586 273.666 286.85 273.746C287.114 273.818 287.394 273.954 287.69 274.154C287.978 274.346 288.306 274.63 288.674 275.006L291.818 278.21L291.482 278.45L291.482 273.242L292.25 273.242L292.25 279.134ZM292.25 270.693L284.21 270.693L284.618 270.309L284.618 272.673L283.85 272.673L283.85 269.829L292.25 269.829L292.25 270.693ZM292.322 264.473C292.322 265.121 292.154 265.697 291.818 266.201C291.474 266.705 290.986 267.101 290.354 267.389C289.714 267.677 288.946 267.821 288.05 267.821C287.154 267.821 286.39 267.677 285.758 267.389C285.118 267.101 284.63 266.705 284.294 266.201C283.95 265.697 283.778 265.121 283.778 264.473C283.778 263.825 283.95 263.249 284.294 262.745C284.63 262.241 285.118 261.845 285.758 261.557C286.39 261.261 287.154 261.113 288.05 261.113C288.946 261.113 289.714 261.261 290.354 261.557C290.986 261.845 291.474 262.241 291.818 262.745C292.154 263.249 292.322 263.825 292.322 264.473ZM291.53 264.473C291.53 263.977 291.398 263.545 291.134 263.177C290.862 262.809 290.47 262.521 289.958 262.313C289.438 262.105 288.802 262.001 288.05 262.001C287.298 262.001 286.666 262.105 286.154 262.313C285.634 262.521 285.242 262.809 284.978 263.177C284.706 263.545 284.57 263.977 284.57 264.473C284.57 264.953 284.706 265.381 284.978 265.757C285.242 266.133 285.634 266.425 286.154 266.633C286.666 266.841 287.298 266.945 288.05 266.945C288.802 266.945 289.438 266.841 289.958 266.633C290.47 266.425 290.862 266.133 291.134 265.757C291.398 265.381 291.53 264.953 291.53 264.473ZM292.25 256.147L285.95 256.147L285.95 255.283L290.786 252.427L290.786 252.787L285.95 249.883L285.95 249.091L292.25 249.091L292.25 249.871L286.922 249.871L286.994 249.715L291.482 252.427L291.482 252.811L286.946 255.547L286.91 255.367L292.25 255.367L292.25 256.147ZM292.25 246.667L285.95 246.667L285.95 245.803L290.786 242.947L290.786 243.307L285.95 240.403L285.95 239.611L292.25 239.611L292.25 240.391L286.922 240.391L286.994 240.235L291.482 242.947L291.482 243.331L286.946 246.067L286.91 245.887L292.25 245.887L292.25 246.667Z" fill="#333333"/>
<rect width="155" height="219" transform="translate(307.25 149)" fill="#1E8CC1"/>
<circle cx="353.75" cy="192.5" r="25.5" fill="white"/>
<circle opacity="0.25" cx="353.25" cy="192" r="18.7089" fill="white" stroke="#333333" stroke-width="0.582213" stroke-dasharray="2.33 2.33"/>
<rect x="400.25" y="234" width="48" height="48" rx="8.00641" fill="white"/>
<rect opacity="0.25" x="406.541" y="240.291" width="36.4178" height="36.4178" rx="7.71531" fill="white" stroke="#333333" stroke-width="0.582213" stroke-dasharray="2.33 2.33"/>
<path d="M350.25 230L358.909 247.082L377.831 250.039L364.261 263.552L367.296 282.461L350.25 273.732L333.204 282.461L336.239 263.552L322.669 250.039L341.591 247.082L350.25 230Z" fill="white"/>
<path d="M350.25 239L356.222 250.78L369.271 252.82L359.913 262.14L362.006 275.18L350.25 269.16L338.494 275.18L340.587 262.14L331.229 252.82L344.278 250.78L350.25 239Z" fill="white"/>
<path d="M348.757 241.945L349.752 239.982L350.011 240.113L350.25 239.641L350.489 240.113L350.748 239.982L351.743 241.945L351.484 242.076L352.48 244.04L352.738 243.908L353.734 245.872L353.475 246.003L354.47 247.966L354.729 247.835L355.724 249.799L355.466 249.93L355.963 250.912L356.03 251.044L356.177 251.067L357.265 251.237L357.309 250.95L359.484 251.29L359.439 251.577L361.614 251.917L361.659 251.63L363.834 251.97L363.789 252.256L365.964 252.596L366.009 252.31L368.184 252.65L368.139 252.936L368.661 253.018L368.287 253.391L368.491 253.596L366.932 255.15L366.727 254.944L365.167 256.497L365.372 256.703L363.812 258.256L363.607 258.051L362.048 259.604L362.252 259.81L360.693 261.363L360.488 261.157L359.708 261.934L359.603 262.039L359.626 262.186L359.801 263.272L360.087 263.226L360.436 265.4L360.15 265.446L360.498 267.619L360.785 267.573L361.134 269.747L360.847 269.793L361.196 271.966L361.482 271.92L361.831 274.094L361.545 274.14L361.629 274.661L361.158 274.421L361.026 274.679L359.067 273.675L359.199 273.417L357.24 272.414L357.107 272.672L355.148 271.668L355.28 271.41L353.321 270.407L353.189 270.665L351.23 269.662L351.362 269.404L350.382 268.902L350.25 268.834L350.118 268.902L349.138 269.404L349.27 269.662L347.311 270.665L347.179 270.407L345.22 271.41L345.352 271.668L343.393 272.672L343.26 272.414L341.301 273.417L341.433 273.675L339.474 274.679L339.342 274.421L338.871 274.661L338.955 274.14L338.669 274.094L339.018 271.92L339.304 271.966L339.653 269.793L339.366 269.747L339.715 267.573L340.002 267.619L340.35 265.446L340.064 265.4L340.413 263.226L340.699 263.272L340.874 262.186L340.897 262.039L340.792 261.934L340.012 261.157L339.807 261.363L338.248 259.81L338.452 259.604L336.893 258.051L336.688 258.256L335.128 256.703L335.333 256.497L333.773 254.944L333.568 255.15L332.009 253.596L332.213 253.391L331.839 253.018L332.361 252.936L332.316 252.65L334.491 252.31L334.536 252.596L336.711 252.256L336.666 251.97L338.841 251.63L338.886 251.917L341.061 251.577L341.016 251.29L343.191 250.95L343.235 251.237L344.323 251.067L344.47 251.044L344.537 250.912L345.034 249.93L344.776 249.799L345.771 247.835L346.03 247.966L347.025 246.003L346.766 245.872L347.762 243.908L348.02 244.04L349.016 242.076L348.757 241.945Z" stroke="#333333" stroke-opacity="0.25" stroke-width="0.58" stroke-dasharray="2 2"/>
<path d="M440.15 174.635C441.511 176.176 442.577 178.015 443.28 180.039C443.984 182.063 444.311 184.228 444.241 186.401C444.17 188.573 443.705 190.706 442.872 192.667C442.04 194.628 440.859 196.375 439.402 197.8L421.529 215.252C421.036 215.734 420.404 216 419.75 216C419.096 216 418.464 215.734 417.971 215.252L400.098 197.8C398.641 196.375 397.46 194.628 396.628 192.667C395.795 190.706 395.33 188.573 395.259 186.401C395.189 184.228 395.516 182.063 396.22 180.039C396.923 178.015 397.989 176.176 399.35 174.635C401.845 171.809 405.199 170.157 408.735 170.011C412.27 169.865 415.723 171.236 418.395 173.848L419.75 175.171L421.105 173.848C423.777 171.236 427.23 169.865 430.765 170.011C434.301 170.157 437.655 171.809 440.15 174.635Z" fill="white"/>
<path d="M435.154 180.123C436.182 181.162 436.987 182.401 437.518 183.765C438.049 185.129 438.296 186.589 438.243 188.053C438.19 189.516 437.838 190.954 437.21 192.275C436.581 193.597 435.689 194.774 434.589 195.735L421.094 207.496C420.721 207.821 420.244 208 419.75 208C419.256 208 418.779 207.821 418.406 207.496L404.911 195.735C403.811 194.775 402.919 193.597 402.29 192.275C401.662 190.954 401.31 189.517 401.257 188.053C401.204 186.589 401.451 185.13 401.982 183.766C402.513 182.402 403.318 181.162 404.346 180.123C406.23 178.219 408.763 177.106 411.432 177.007C414.102 176.909 416.709 177.833 418.727 179.593L419.75 180.485L420.773 179.593C422.791 177.833 425.398 176.909 428.068 177.007C430.737 177.106 433.27 178.219 435.154 180.123Z" fill="white" stroke="#333333" stroke-opacity="0.25" stroke-width="0.58" stroke-linecap="round" stroke-linejoin="round" stroke-dasharray="2 2"/>
<path d="M400.987 305.728C402.07 306.967 402.918 308.447 403.478 310.075C404.038 311.703 404.298 313.445 404.243 315.192C404.187 316.939 403.816 318.655 403.153 320.232C402.491 321.809 401.551 323.215 400.391 324.361L386.166 338.398C385.773 338.786 385.27 339 384.75 339C384.23 339 383.727 338.786 383.334 338.398L369.109 324.361C367.949 323.215 367.009 321.809 366.346 320.232C365.684 318.655 365.313 316.939 365.257 315.192C365.202 313.445 365.462 311.703 366.022 310.075C366.582 308.447 367.43 306.967 368.513 305.728C370.499 303.455 373.169 302.126 375.983 302.009C378.797 301.891 381.545 302.994 383.672 305.095L384.75 306.159L385.828 305.095C387.955 302.994 390.703 301.891 393.517 302.009C396.331 302.126 399.001 303.455 400.987 305.728Z" fill="white"/>
<path d="M396.824 310.519C397.629 311.356 398.26 312.356 398.676 313.456C399.093 314.556 399.286 315.733 399.244 316.913C399.203 318.094 398.927 319.253 398.435 320.319C397.942 321.385 397.243 322.334 396.381 323.109L385.803 332.593C385.511 332.856 385.137 333 384.75 333C384.363 333 383.989 332.856 383.697 332.593L373.119 323.109C372.257 322.334 371.558 321.385 371.065 320.319C370.573 319.253 370.297 318.094 370.256 316.913C370.214 315.733 370.407 314.556 370.824 313.456C371.24 312.356 371.871 311.356 372.676 310.519C374.153 308.983 376.138 308.085 378.231 308.006C380.323 307.926 382.367 308.672 383.948 310.091L384.75 310.81L385.552 310.091C387.133 308.672 389.177 307.926 391.269 308.006C393.362 308.085 395.347 308.983 396.824 310.519Z" fill="white" stroke="#333333" stroke-opacity="0.25" stroke-width="0.58" stroke-linecap="round" stroke-linejoin="round" stroke-dasharray="2 2"/>
<path d="M425.786 305C427.325 302.333 431.175 302.333 432.714 305L450.035 335C451.574 337.667 449.65 341 446.571 341H411.929C408.85 341 406.926 337.667 408.465 335L425.786 305Z" fill="white"/>
<path d="M429.25 310L443.972 335.5H414.528L429.25 310Z" fill="white"/>
<path d="M427.673 312.732L428.724 310.911L429.157 311.161L429.25 311L429.343 311.161L429.776 310.911L430.827 312.732L430.394 312.982L431.446 314.804L431.879 314.554L432.931 316.375L432.498 316.625L433.549 318.446L433.982 318.196L435.034 320.018L434.601 320.268L435.652 322.089L436.085 321.839L437.137 323.661L436.704 323.911L437.756 325.732L438.189 325.482L439.24 327.304L438.807 327.554L439.859 329.375L440.292 329.125L441.343 330.946L440.91 331.196L441.962 333.018L442.395 332.768L443.447 334.589L443.014 334.839L443.106 335H442.921V335.5H440.818V335H438.714V335.5H436.611V335H434.508V335.5H432.405V335H430.302V335.5H428.198V335H426.095V335.5H423.992V335H421.889V335.5H419.786V335H417.682V335.5H415.579V335H415.394L415.486 334.839L415.053 334.589L416.105 332.768L416.538 333.018L417.59 331.196L417.157 330.946L418.208 329.125L418.641 329.375L419.693 327.554L419.26 327.304L420.311 325.482L420.744 325.732L421.796 323.911L421.363 323.661L422.415 321.839L422.848 322.089L423.899 320.268L423.466 320.018L424.518 318.196L424.951 318.446L426.002 316.625L425.569 316.375L426.621 314.554L427.054 314.804L428.106 312.982L427.673 312.732Z" stroke="#333333" stroke-opacity="0.25" stroke-dasharray="2 2"/>
<path d="M336.786 305C338.325 302.333 342.175 302.333 343.714 305L361.035 335C362.574 337.667 360.65 341 357.571 341H322.929C319.85 341 317.926 337.667 319.465 335L336.786 305Z" fill="white"/>
<path d="M340.25 310L354.972 335.5H325.528L340.25 310Z" fill="white"/>
<path d="M338.673 312.732L339.724 310.911L340.157 311.161L340.25 311L340.343 311.161L340.776 310.911L341.827 312.732L341.394 312.982L342.446 314.804L342.879 314.554L343.931 316.375L343.498 316.625L344.549 318.446L344.982 318.196L346.034 320.018L345.601 320.268L346.652 322.089L347.085 321.839L348.137 323.661L347.704 323.911L348.756 325.732L349.189 325.482L350.24 327.304L349.807 327.554L350.859 329.375L351.292 329.125L352.343 330.946L351.91 331.196L352.962 333.018L353.395 332.768L354.447 334.589L354.014 334.839L354.106 335H353.921V335.5H351.818V335H349.714V335.5H347.611V335H345.508V335.5H343.405V335H341.302V335.5H339.198V335H337.095V335.5H334.992V335H332.889V335.5H330.786V335H328.682V335.5H326.579V335H326.394L326.486 334.839L326.053 334.589L327.105 332.768L327.538 333.018L328.59 331.196L328.157 330.946L329.208 329.125L329.641 329.375L330.693 327.554L330.26 327.304L331.311 325.482L331.744 325.732L332.796 323.911L332.363 323.661L333.415 321.839L333.848 322.089L334.899 320.268L334.466 320.018L335.518 318.196L335.951 318.446L337.002 316.625L336.569 316.375L337.621 314.554L338.054 314.804L339.106 312.982L338.673 312.732Z" stroke="#333333" stroke-opacity="0.25" stroke-dasharray="2 2"/>
<path d="M366.768 141V132.96L367.152 133.368H364.788V132.6H367.632V141H366.768ZM369.496 138.792V138.168L373.948 132.6H374.908L370.492 138.168L370.024 138.024H376.78V138.792H369.496ZM374.236 141V138.792L374.26 138.024V136.08H375.1V141H374.236ZM380.882 141.072C380.21 141.072 379.63 140.976 379.142 140.784C378.662 140.592 378.29 140.316 378.026 139.956C377.77 139.588 377.642 139.156 377.642 138.66C377.642 138.18 377.766 137.772 378.014 137.436C378.27 137.092 378.638 136.828 379.118 136.644C379.606 136.46 380.194 136.368 380.882 136.368C381.562 136.368 382.146 136.46 382.634 136.644C383.122 136.828 383.494 137.092 383.75 137.436C384.014 137.772 384.146 138.18 384.146 138.66C384.146 139.156 384.014 139.588 383.75 139.956C383.486 140.316 383.11 140.592 382.622 140.784C382.134 140.976 381.554 141.072 380.882 141.072ZM380.882 140.34C381.626 140.34 382.206 140.188 382.622 139.884C383.046 139.58 383.258 139.168 383.258 138.648C383.258 138.128 383.046 137.72 382.622 137.424C382.206 137.12 381.626 136.968 380.882 136.968C380.138 136.968 379.558 137.12 379.142 137.424C378.726 137.72 378.518 138.128 378.518 138.648C378.518 139.168 378.726 139.58 379.142 139.884C379.558 140.188 380.138 140.34 380.882 140.34ZM380.882 136.86C380.258 136.86 379.726 136.776 379.286 136.608C378.854 136.44 378.522 136.2 378.29 135.888C378.058 135.568 377.942 135.188 377.942 134.748C377.942 134.284 378.062 133.888 378.302 133.56C378.55 133.224 378.894 132.968 379.334 132.792C379.774 132.616 380.29 132.528 380.882 132.528C381.474 132.528 381.99 132.616 382.43 132.792C382.878 132.968 383.226 133.224 383.474 133.56C383.722 133.888 383.846 134.284 383.846 134.748C383.846 135.188 383.73 135.568 383.498 135.888C383.266 136.2 382.926 136.44 382.478 136.608C382.038 136.776 381.506 136.86 380.882 136.86ZM380.882 136.284C381.538 136.284 382.05 136.148 382.418 135.876C382.786 135.604 382.97 135.24 382.97 134.784C382.97 134.304 382.778 133.932 382.394 133.668C382.018 133.396 381.514 133.26 380.882 133.26C380.25 133.26 379.746 133.396 379.37 133.668C378.994 133.932 378.806 134.3 378.806 134.772C378.806 135.236 378.986 135.604 379.346 135.876C379.714 136.148 380.226 136.284 380.882 136.284ZM389.071 141V134.7H389.935L392.791 139.536H392.431L395.335 134.7H396.127V141H395.347V135.672L395.503 135.744L392.791 140.232H392.407L389.671 135.696L389.851 135.66V141H389.071ZM398.552 141V134.7H399.416L402.272 139.536H401.912L404.816 134.7H405.608V141H404.828V135.672L404.984 135.744L402.272 140.232H401.888L399.152 135.696L399.332 135.66V141H398.552Z" fill="#333333"/>
<path d="M567.664 173L573.904 159H577.104L583.364 173H579.964L574.844 160.64H576.124L570.984 173H567.664ZM570.784 170L571.644 167.54H578.844L579.724 170H570.784ZM589.962 173.24C588.682 173.24 587.569 172.973 586.622 172.44C585.689 171.907 584.969 171.127 584.462 170.1C583.955 169.073 583.702 167.807 583.702 166.3C583.702 164.687 584.002 163.32 584.602 162.2C585.215 161.08 586.055 160.227 587.122 159.64C588.202 159.053 589.442 158.76 590.842 158.76C591.589 158.76 592.302 158.84 592.982 159C593.662 159.16 594.249 159.4 594.742 159.72L593.542 162.1C593.155 161.833 592.742 161.653 592.302 161.56C591.862 161.453 591.402 161.4 590.922 161.4C589.709 161.4 588.749 161.767 588.042 162.5C587.335 163.233 586.982 164.32 586.982 165.76C586.982 166 586.982 166.267 586.982 166.56C586.995 166.853 587.035 167.147 587.102 167.44L586.202 166.6C586.455 166.08 586.782 165.647 587.182 165.3C587.582 164.94 588.055 164.673 588.602 164.5C589.162 164.313 589.775 164.22 590.442 164.22C591.349 164.22 592.162 164.4 592.882 164.76C593.602 165.12 594.175 165.627 594.602 166.28C595.042 166.933 595.262 167.7 595.262 168.58C595.262 169.527 595.022 170.353 594.542 171.06C594.075 171.753 593.442 172.293 592.642 172.68C591.855 173.053 590.962 173.24 589.962 173.24ZM589.782 170.82C590.235 170.82 590.635 170.74 590.982 170.58C591.342 170.407 591.622 170.16 591.822 169.84C592.022 169.52 592.122 169.153 592.122 168.74C592.122 168.1 591.902 167.593 591.462 167.22C591.035 166.833 590.462 166.64 589.742 166.64C589.262 166.64 588.842 166.733 588.482 166.92C588.122 167.093 587.835 167.34 587.622 167.66C587.422 167.967 587.322 168.327 587.322 168.74C587.322 169.14 587.422 169.5 587.622 169.82C587.822 170.127 588.102 170.373 588.462 170.56C588.822 170.733 589.262 170.82 589.782 170.82Z" fill="#0F1D41"/>
<path d="M563.248 205V196.96L563.632 197.368H561.268V196.6H564.112V205H563.248ZM569.468 205.072C568.82 205.072 568.244 204.904 567.74 204.568C567.236 204.224 566.84 203.736 566.552 203.104C566.264 202.464 566.12 201.696 566.12 200.8C566.12 199.904 566.264 199.14 566.552 198.508C566.84 197.868 567.236 197.38 567.74 197.044C568.244 196.7 568.82 196.528 569.468 196.528C570.116 196.528 570.692 196.7 571.196 197.044C571.7 197.38 572.096 197.868 572.384 198.508C572.68 199.14 572.828 199.904 572.828 200.8C572.828 201.696 572.68 202.464 572.384 203.104C572.096 203.736 571.7 204.224 571.196 204.568C570.692 204.904 570.116 205.072 569.468 205.072ZM569.468 204.28C569.964 204.28 570.396 204.148 570.764 203.884C571.132 203.612 571.42 203.22 571.628 202.708C571.836 202.188 571.94 201.552 571.94 200.8C571.94 200.048 571.836 199.416 571.628 198.904C571.42 198.384 571.132 197.992 570.764 197.728C570.396 197.456 569.964 197.32 569.468 197.32C568.988 197.32 568.56 197.456 568.184 197.728C567.808 197.992 567.516 198.384 567.308 198.904C567.1 199.416 566.996 200.048 566.996 200.8C566.996 201.552 567.1 202.188 567.308 202.708C567.516 203.22 567.808 203.612 568.184 203.884C568.56 204.148 568.988 204.28 569.468 204.28ZM576.717 205.072C576.117 205.072 575.545 204.976 575.001 204.784C574.457 204.584 574.025 204.32 573.705 203.992L574.125 203.308C574.389 203.588 574.749 203.82 575.205 204.004C575.669 204.188 576.169 204.28 576.705 204.28C577.417 204.28 577.957 204.124 578.325 203.812C578.701 203.492 578.889 203.076 578.889 202.564C578.889 202.204 578.801 201.896 578.625 201.64C578.457 201.376 578.169 201.172 577.761 201.028C577.353 200.884 576.793 200.812 576.081 200.812H574.293L574.725 196.6H579.321V197.368H575.073L575.517 196.948L575.145 200.476L574.701 200.044H576.273C577.121 200.044 577.801 200.148 578.313 200.356C578.825 200.564 579.193 200.856 579.417 201.232C579.649 201.6 579.765 202.032 579.765 202.528C579.765 203 579.653 203.432 579.429 203.824C579.205 204.208 578.869 204.512 578.421 204.736C577.973 204.96 577.405 205.072 576.717 205.072ZM584.591 205V198.7H585.455L588.311 203.536H587.951L590.855 198.7H591.647V205H590.867V199.672L591.023 199.744L588.311 204.232H587.927L585.191 199.696L585.371 199.66V205H584.591ZM594.071 205V198.7H594.935L597.791 203.536H597.431L600.335 198.7H601.127V205H600.347V199.672L600.503 199.744L597.791 204.232H597.407L594.671 199.696L594.851 199.66V205H594.071Z" fill="#333333"/>
<path d="M518.25 309.482L510.21 309.482L510.618 309.098L510.618 311.462L509.85 311.462L509.85 308.618L518.25 308.618L518.25 309.482ZM516.042 306.754L515.418 306.754L509.85 302.302L509.85 301.342L515.418 305.758L515.274 306.226L515.274 299.47L516.042 299.47L516.042 306.754ZM518.25 302.014L516.042 302.014L515.274 301.99L513.33 301.99L513.33 301.15L518.25 301.15L518.25 302.014ZM518.322 295.368C518.322 296.04 518.226 296.62 518.034 297.108C517.842 297.588 517.566 297.96 517.206 298.224C516.838 298.48 516.406 298.608 515.91 298.608C515.43 298.608 515.022 298.484 514.686 298.236C514.342 297.98 514.078 297.612 513.894 297.132C513.71 296.644 513.618 296.056 513.618 295.368C513.618 294.688 513.71 294.104 513.894 293.616C514.078 293.128 514.342 292.756 514.686 292.5C515.022 292.236 515.43 292.104 515.91 292.104C516.406 292.104 516.838 292.236 517.206 292.5C517.566 292.764 517.842 293.14 518.034 293.628C518.226 294.116 518.322 294.696 518.322 295.368ZM517.59 295.368C517.59 294.624 517.438 294.044 517.134 293.628C516.83 293.204 516.418 292.992 515.898 292.992C515.378 292.992 514.97 293.204 514.674 293.628C514.37 294.044 514.218 294.624 514.218 295.368C514.218 296.112 514.37 296.692 514.674 297.108C514.97 297.524 515.378 297.732 515.898 297.732C516.418 297.732 516.83 297.524 517.134 297.108C517.438 296.692 517.59 296.112 517.59 295.368ZM514.11 295.368C514.11 295.992 514.026 296.524 513.858 296.964C513.69 297.396 513.45 297.728 513.138 297.96C512.818 298.192 512.438 298.308 511.998 298.308C511.534 298.308 511.138 298.188 510.81 297.948C510.474 297.7 510.218 297.356 510.042 296.916C509.866 296.476 509.778 295.96 509.778 295.368C509.778 294.776 509.866 294.26 510.042 293.82C510.218 293.372 510.474 293.024 510.81 292.776C511.138 292.528 511.534 292.404 511.998 292.404C512.438 292.404 512.818 292.52 513.138 292.752C513.45 292.984 513.69 293.324 513.858 293.772C514.026 294.212 514.11 294.744 514.11 295.368ZM513.534 295.368C513.534 294.712 513.398 294.2 513.126 293.832C512.854 293.464 512.49 293.28 512.034 293.28C511.554 293.28 511.182 293.472 510.918 293.856C510.646 294.232 510.51 294.736 510.51 295.368C510.51 296 510.646 296.504 510.918 296.88C511.182 297.256 511.55 297.444 512.022 297.444C512.486 297.444 512.854 297.264 513.126 296.904C513.398 296.536 513.534 296.024 513.534 295.368ZM518.25 287.179L511.95 287.179L511.95 286.315L516.786 283.459L516.786 283.819L511.95 280.915L511.95 280.123L518.25 280.123L518.25 280.903L512.922 280.903L512.994 280.747L517.482 283.459L517.482 283.843L512.946 286.579L512.91 286.399L518.25 286.399L518.25 287.179ZM518.25 277.698L511.95 277.698L511.95 276.834L516.786 273.978L516.786 274.338L511.95 271.434L511.95 270.642L518.25 270.642L518.25 271.422L512.922 271.422L512.994 271.266L517.482 273.978L517.482 274.362L512.946 277.098L512.91 276.918L518.25 276.918L518.25 277.698Z" fill="#333333"/>
<rect width="110" height="155" transform="translate(526.75 213)" fill="#BABABA"/>
<path d="M562.75 224L571.409 241.082L590.331 244.039L576.761 257.552L579.796 276.461L562.75 267.732L545.704 276.461L548.739 257.552L535.169 244.039L554.091 241.082L562.75 224Z" fill="white"/>
<path d="M562.75 233L568.722 244.78L581.771 246.82L572.413 256.14L574.506 269.18L562.75 263.16L550.994 269.18L553.087 256.14L543.729 246.82L556.778 244.78L562.75 233Z" fill="white"/>
<path d="M561.257 235.945L562.252 233.982L562.511 234.113L562.75 233.641L562.989 234.113L563.248 233.982L564.243 235.945L563.984 236.076L564.98 238.04L565.238 237.908L566.234 239.872L565.975 240.003L566.97 241.966L567.229 241.835L568.224 243.799L567.966 243.93L568.463 244.912L568.53 245.044L568.677 245.067L569.765 245.237L569.809 244.95L571.984 245.29L571.939 245.577L574.114 245.917L574.159 245.63L576.334 245.97L576.289 246.256L578.464 246.596L578.509 246.31L580.684 246.65L580.639 246.936L581.161 247.018L580.787 247.391L580.991 247.596L579.432 249.15L579.227 248.944L577.667 250.497L577.872 250.703L576.312 252.256L576.107 252.051L574.548 253.604L574.752 253.81L573.193 255.363L572.988 255.157L572.208 255.934L572.103 256.039L572.126 256.186L572.301 257.272L572.587 257.226L572.936 259.4L572.65 259.446L572.998 261.619L573.285 261.573L573.634 263.747L573.347 263.793L573.696 265.966L573.982 265.92L574.331 268.094L574.045 268.14L574.129 268.661L573.658 268.421L573.526 268.679L571.567 267.675L571.699 267.417L569.74 266.414L569.607 266.672L567.648 265.668L567.78 265.41L565.821 264.407L565.689 264.665L563.73 263.662L563.862 263.404L562.882 262.902L562.75 262.834L562.618 262.902L561.638 263.404L561.77 263.662L559.811 264.665L559.679 264.407L557.72 265.41L557.852 265.668L555.893 266.672L555.76 266.414L553.801 267.417L553.933 267.675L551.974 268.679L551.842 268.421L551.371 268.661L551.455 268.14L551.169 268.094L551.518 265.92L551.804 265.966L552.153 263.793L551.866 263.747L552.215 261.573L552.502 261.619L552.85 259.446L552.564 259.4L552.913 257.226L553.199 257.272L553.374 256.186L553.397 256.039L553.292 255.934L552.512 255.157L552.307 255.363L550.748 253.81L550.952 253.604L549.393 252.051L549.188 252.256L547.628 250.703L547.833 250.497L546.273 248.944L546.068 249.15L544.509 247.596L544.713 247.391L544.339 247.018L544.861 246.936L544.816 246.65L546.991 246.31L547.036 246.596L549.211 246.256L549.166 245.97L551.341 245.63L551.386 245.917L553.561 245.577L553.516 245.29L555.691 244.95L555.735 245.237L556.823 245.067L556.97 245.044L557.037 244.912L557.534 243.93L557.276 243.799L558.271 241.835L558.53 241.966L559.525 240.003L559.266 239.872L560.262 237.908L560.52 238.04L561.516 236.076L561.257 235.945Z" stroke="#333333" stroke-opacity="0.25" stroke-width="0.58" stroke-dasharray="2 2"/>
<path d="M549.75 328L554.528 337.424L564.967 339.056L557.48 346.512L559.155 356.944L549.75 352.128L540.345 356.944L542.02 346.512L534.533 339.056L544.972 337.424L549.75 328Z" fill="white"/>
<path d="M549.75 333L553.035 339.479L560.212 340.601L555.065 345.727L556.216 352.899L549.75 349.588L543.284 352.899L544.435 345.727L539.288 340.601L546.465 339.479L549.75 333Z" fill="white"/>
<path d="M548.518 335.43L549.339 333.81L549.598 333.941L549.75 333.641L549.902 333.941L550.161 333.81L550.982 335.43L550.723 335.561L551.544 337.181L551.803 337.05L552.624 338.669L552.365 338.8L552.776 339.61L552.843 339.743L552.99 339.766L553.887 339.906L553.932 339.619L555.726 339.9L555.681 340.186L557.475 340.467L557.52 340.18L559.314 340.461L559.27 340.747L559.602 340.799L559.364 341.036L559.568 341.242L558.281 342.523L558.077 342.318L556.79 343.599L556.995 343.805L555.708 345.086L555.503 344.881L554.86 345.521L554.755 345.626L554.778 345.773L554.922 346.669L555.208 346.623L555.496 348.416L555.21 348.462L555.498 350.255L555.784 350.21L556.072 352.003L555.785 352.049L555.839 352.38L555.54 352.227L555.407 352.485L553.791 351.657L553.923 351.399L552.307 350.572L552.175 350.83L550.558 350.002L550.69 349.744L549.882 349.33L549.75 349.262L549.618 349.33L548.81 349.744L548.942 350.002L547.325 350.83L547.193 350.572L545.577 351.399L545.709 351.657L544.093 352.485L543.96 352.227L543.661 352.38L543.715 352.049L543.428 352.003L543.716 350.21L544.002 350.255L544.29 348.462L544.004 348.416L544.292 346.623L544.578 346.669L544.722 345.773L544.745 345.626L544.64 345.521L543.997 344.881L543.792 345.086L542.505 343.805L542.71 343.599L541.423 342.318L541.219 342.523L539.932 341.242L540.136 341.036L539.898 340.799L540.23 340.747L540.186 340.461L541.98 340.18L542.025 340.467L543.819 340.186L543.774 339.9L545.568 339.619L545.613 339.906L546.51 339.766L546.657 339.743L546.724 339.61L547.135 338.8L546.876 338.669L547.697 337.05L547.956 337.181L548.777 335.561L548.518 335.43Z" stroke="#333333" stroke-opacity="0.25" stroke-width="0.58" stroke-dasharray="2 2"/>
<circle cx="611.75" cy="271" r="14" fill="white"/>
<circle opacity="0.25" cx="612.25" cy="271.5" r="10.2089" fill="white" stroke="#333333" stroke-width="0.582213" stroke-dasharray="2.33 2.33"/>
<circle cx="581.75" cy="344" r="12" fill="white"/>
<circle opacity="0.25" cx="581.75" cy="344" r="8.70889" fill="white" stroke="#333333" stroke-width="0.582213" stroke-dasharray="2.33 2.33"/>
<path d="M623.24 223.821C624.073 224.759 624.726 225.879 625.156 227.111C625.587 228.343 625.787 229.661 625.744 230.983C625.701 232.305 625.416 233.603 624.907 234.797C624.397 235.991 623.674 237.054 622.782 237.922L611.839 248.544C611.537 248.838 611.15 249 610.75 249C610.35 249 609.963 248.838 609.661 248.544L598.718 237.922C597.826 237.054 597.103 235.991 596.593 234.797C596.084 233.603 595.799 232.305 595.756 230.983C595.713 229.661 595.913 228.343 596.344 227.111C596.774 225.879 597.427 224.759 598.26 223.821C599.788 222.101 601.841 221.095 604.006 221.006C606.17 220.918 608.284 221.752 609.92 223.342L610.75 224.148L611.58 223.342C613.216 221.752 615.33 220.918 617.494 221.006C619.659 221.095 621.712 222.101 623.24 223.821Z" fill="white"/>
<path d="M620.826 226.914C621.465 227.551 621.965 228.311 622.295 229.147C622.625 229.983 622.779 230.877 622.746 231.774C622.713 232.671 622.494 233.552 622.103 234.362C621.713 235.172 621.158 235.894 620.474 236.483L612.085 243.691C611.853 243.89 611.557 244 611.25 244C610.943 244 610.647 243.89 610.415 243.691L602.026 236.483C601.342 235.894 600.787 235.172 600.397 234.362C600.006 233.552 599.787 232.671 599.754 231.774C599.721 230.877 599.875 229.983 600.205 229.147C600.535 228.311 601.035 227.551 601.674 226.914C602.845 225.747 604.42 225.065 606.08 225.004C607.739 224.944 609.36 225.511 610.614 226.589L611.25 227.136L611.886 226.589C613.14 225.511 614.761 224.944 616.421 225.004C618.08 225.065 619.655 225.747 620.826 226.914Z" fill="white" stroke="#333333" stroke-opacity="0.25" stroke-width="0.58" stroke-linecap="round" stroke-linejoin="round" stroke-dasharray="2 2"/>
<path d="M592.575 294.418C593.297 295.222 593.862 296.182 594.236 297.238C594.609 298.294 594.782 299.424 594.745 300.557C594.708 301.69 594.461 302.803 594.019 303.826C593.577 304.849 592.951 305.761 592.178 306.505L582.694 315.61C582.432 315.861 582.097 316 581.75 316C581.403 316 581.068 315.861 580.806 315.61L571.322 306.505C570.549 305.761 569.923 304.849 569.481 303.826C569.039 302.803 568.792 301.69 568.755 300.557C568.718 299.424 568.891 298.294 569.264 297.238C569.638 296.182 570.203 295.222 570.925 294.418C572.249 292.944 574.029 292.082 575.905 292.006C577.781 291.929 579.613 292.645 581.031 294.008L581.75 294.698L582.469 294.008C583.887 292.645 585.719 291.929 587.595 292.006C589.471 292.082 591.251 292.944 592.575 294.418Z" fill="white"/>
<path d="M590.077 297.612C590.632 298.148 591.067 298.788 591.354 299.492C591.641 300.196 591.775 300.949 591.746 301.705C591.718 302.46 591.527 303.202 591.188 303.884C590.848 304.566 590.366 305.174 589.771 305.67L582.476 311.74C582.275 311.908 582.017 312 581.75 312C581.483 312 581.225 311.908 581.024 311.74L573.729 305.67C573.134 305.174 572.652 304.566 572.312 303.884C571.973 303.202 571.782 302.46 571.754 301.705C571.725 300.949 571.859 300.196 572.146 299.492C572.433 298.788 572.868 298.148 573.423 297.612C574.442 296.629 575.811 296.054 577.254 296.004C578.697 295.953 580.106 296.43 581.197 297.338L581.75 297.799L582.303 297.338C583.394 296.43 584.803 295.953 586.246 296.004C587.689 296.054 589.058 296.629 590.077 297.612Z" fill="white" stroke="#333333" stroke-opacity="0.25" stroke-width="0.58" stroke-linecap="round" stroke-linejoin="round" stroke-dasharray="2 2"/>
<rect x="538.75" y="292" width="25" height="25" rx="8.00641" fill="white"/>
<rect opacity="0.25" x="542.041" y="295.291" width="18.4178" height="18.4178" rx="7.71531" fill="white" stroke="#333333" stroke-width="0.582213" stroke-dasharray="2.33 2.33"/>
<path d="M609.286 293C610.825 290.333 614.675 290.333 616.214 293L625.74 309.5C627.28 312.167 625.355 315.5 622.276 315.5H603.224C600.145 315.5 598.22 312.167 599.76 309.5L609.286 293Z" fill="white"/>
<path d="M612.25 294L622.209 311.25H602.291L612.25 294Z" fill="white"/>
<path d="M610.756 296.587L611.752 294.863L612.003 295.008L612.25 294.58L612.497 295.007L612.748 294.862L613.744 296.587L613.493 296.732L614.489 298.457L614.74 298.312L615.736 300.037L615.485 300.182L616.481 301.907L616.732 301.762L617.728 303.487L617.476 303.632L618.472 305.358L618.724 305.212L619.719 306.938L619.468 307.083L620.464 308.807L620.715 308.663L621.711 310.388L621.46 310.532L621.707 310.96H621.213V311.25H619.222V310.96H617.23V311.25H615.238V310.96H613.246V311.25H611.254V310.96H609.262V311.25H607.27V310.96H605.278V311.25H603.287V310.96H602.793L603.04 310.533L602.789 310.388L603.785 308.663L604.036 308.808L605.032 307.083L604.781 306.938L605.776 305.213L606.028 305.358L607.024 303.633L606.772 303.488L607.768 301.763L608.019 301.908L609.015 300.182L608.764 300.037L609.76 298.312L610.011 298.457L611.007 296.733L610.756 296.587Z" stroke="#333333" stroke-opacity="0.25" stroke-width="0.58" stroke-dasharray="2 2"/>
<path d="M599.773 345.022L607.077 332.924L620.84 336.133L622.041 350.213L609.021 355.707L599.773 345.022Z" fill="white"/>
<path opacity="0.25" d="M604.25 346.866L603.054 345.484L603.273 345.294L602.813 344.763L603.176 344.161L602.928 344.011L603.873 342.446L604.121 342.596L605.065 341.032L604.817 340.882L605.762 339.317L606.01 339.467L606.955 337.903L606.706 337.753L607.651 336.188L607.899 336.338L608.263 335.736L608.947 335.896L609.013 335.613L610.793 336.028L610.727 336.311L612.507 336.726L612.573 336.443L614.353 336.858L614.287 337.14L616.067 337.555L616.133 337.273L617.912 337.688L617.847 337.97L618.531 338.13L618.591 338.83L618.88 338.806L619.035 340.627L618.747 340.651L618.902 342.472L619.191 342.448L619.346 344.268L619.057 344.293L619.213 346.114L619.502 346.089L619.657 347.91L619.368 347.935L619.428 348.636L618.78 348.909L618.893 349.176L617.209 349.887L617.096 349.619L615.413 350.33L615.525 350.597L613.842 351.308L613.729 351.04L612.045 351.751L612.158 352.018L610.474 352.729L610.361 352.461L609.713 352.735L609.253 352.203L609.034 352.393L607.838 351.011L608.057 350.821L606.861 349.44L606.642 349.629L605.446 348.248L605.665 348.058L604.469 346.676L604.25 346.866Z" fill="white" stroke="black" stroke-width="0.58" stroke-dasharray="2 2"/>
</svg>
