<svg width="66" height="56" viewBox="0 0 66 56" fill="none" xmlns="http://www.w3.org/2000/svg">
<path d="M15.7034 30.2764C17.5241 29.8211 19.269 29.897 20.9379 30.5041C22.6069 30.9593 24.0483 31.794 25.2621 33.0081C26.6276 34.2222 27.6897 35.664 28.4483 37.3333C29.3586 39.0027 29.8138 40.8238 29.8138 42.7967C29.8138 46.5908 28.4483 49.7778 25.7172 52.3577C22.9862 54.7859 19.6483 56 15.7034 56C10.3931 56 6.44828 54.103 3.86897 50.3089C1.28966 46.3631 0 41.355 0 35.2846C0 27.0894 1.89655 19.9566 5.68966 13.8862C9.63448 7.66396 15.7034 3.03523 23.8966 0L27.0828 4.3252C21.1655 7.05691 16.7655 10.4715 13.8828 14.5691C11 18.6667 9.55862 23.2195 9.55862 28.2276C9.55862 29.897 9.86207 30.8835 10.469 31.187C11.2276 31.4905 12.0621 31.4905 12.9724 31.187L15.7034 30.2764ZM52.1172 30.2764C55.6069 29.5176 58.7931 30.4282 61.6759 33.0081C64.5586 35.5881 66 38.8509 66 42.7967C66 46.5908 64.6345 49.7778 61.9034 52.3577C59.3241 54.7859 56.0621 56 52.1172 56C46.8069 56 42.7862 54.103 40.0552 50.3089C37.4759 46.3631 36.1862 41.355 36.1862 35.2846C36.1862 27.0894 38.1586 19.9566 42.1034 13.8862C46.0483 7.66396 52.1172 3.03523 60.3103 0L63.4966 4.3252C57.5793 7.05691 53.1034 10.4715 50.069 14.5691C47.1862 18.6667 45.7448 23.2195 45.7448 28.2276C45.7448 29.897 46.0483 30.8835 46.6552 31.187C47.4138 31.4905 48.3241 31.4905 49.3862 31.187L52.1172 30.2764Z" fill="#EDEDED"/>
</svg>
