<svg width="172" height="99" viewBox="0 0 172 99" fill="none" xmlns="http://www.w3.org/2000/svg">
<g id="Group 1000004254">
<path id="Union" fill-rule="evenodd" clip-rule="evenodd" d="M0.135392 0.123406C0.090097 0.0822704 0.0450485 0.0411352 0 0C0.806688 2.80797 2.0166 5.51604 3.62985 8.12323C4.84296 8.7618 6.09385 9.34161 7.37158 9.88616C9.43397 10.7882 11.5668 11.5923 13.7231 12.4042C17.8094 13.9439 21.9797 15.5148 25.9132 17.8517C25.3083 16.4482 24.5689 15.077 23.695 13.7401C21.3302 12.4493 18.9159 11.2652 16.5231 10.0918C10.5493 7.16145 4.70831 4.29667 0.100805 0C0.112252 0.0411352 0.123822 0.0822704 0.135392 0.123406ZM56.4305 2.92256C56.4086 2.88436 56.3864 2.84617 56.3639 2.80797C54.0448 10.6305 50.0116 17.6509 45.8776 24.4715C46.5497 24.5381 47.222 24.7056 47.8942 24.973C47.9028 24.9632 47.9115 24.9534 47.9201 24.9436C47.9451 24.9534 47.97 24.9632 47.995 24.973C57.473 14.3415 59.1871 7.42197 56.4647 2.80797C56.4534 2.84617 56.4419 2.88436 56.4305 2.92256ZM14.898 13.9321C11.613 12.8646 8.25015 11.7725 4.43654 9.82838C5.54564 11.7343 7.05809 13.5394 9.07469 15.2445C9.11863 15.2572 9.16257 15.269 9.20651 15.2817C9.22965 15.3023 9.25303 15.3238 9.2763 15.3444C11.449 15.9722 13.5729 16.4296 15.6524 16.8772C18.2178 17.4296 20.7155 17.9683 23.1534 18.7929C24.3615 19.2248 25.55 19.7341 26.7199 20.359L26.6793 20.2375C26.76 20.2777 26.8409 20.3179 26.9215 20.359C26.7199 19.8242 26.4846 19.2562 26.2158 18.6538C26.1881 18.6382 26.1602 18.6225 26.1326 18.6068L26.115 18.5539C22.1279 16.2807 18.5613 15.1221 14.898 13.9321ZM57.433 12.8802C57.4143 12.7989 57.394 12.7176 57.3722 12.6363C56.1195 17.265 53.1991 20.8673 50.3728 24.353C50.0144 24.7947 49.6576 25.2345 49.3058 25.6743C49.8436 25.9416 50.3141 26.2766 50.7175 26.6772C50.7194 26.6752 50.7214 26.6733 50.7234 26.6713C50.7554 26.7066 50.787 26.7418 50.8183 26.778C55.658 21.5627 58.5821 16.7489 57.473 12.7372C57.4598 12.7852 57.4465 12.8332 57.433 12.8802ZM24.9917 14.2876C24.8959 14.2387 24.7998 14.1897 24.7033 14.1407C28.1315 19.6568 29.5432 26.3765 29.5432 33.9992C29.5768 33.9757 29.6104 33.9512 29.644 33.9277C29.644 33.9512 29.644 33.9757 29.644 33.9992C30.2919 33.631 31.0249 33.0933 31.6087 32.4645C31.183 33.7877 30.3126 34.8425 29.4423 35.8043C26.3166 39.4144 27.1233 44.3291 28.5349 48.2399C28.9905 49.4994 30.0057 50.3035 31.1589 50.5758C32.3272 50.8843 33.6518 50.6678 34.6855 49.8451C37.7858 47.4279 39.7025 43.9021 41.9399 39.7866C42.3947 38.9502 42.8628 38.0893 43.3568 37.2078C43.2968 37.2225 43.2371 37.2362 43.178 37.2499C43.204 37.2029 43.2299 37.1549 43.256 37.1079C41.4562 37.5398 40.0765 37.6299 39.0936 37.3547C38.53 37.1608 38.1041 36.8425 37.8112 36.4056C36.4087 34.4125 37.7931 31.4302 38.9975 28.8338L39.0069 28.8142C40.5228 29.3353 42.0065 29.7594 43.4576 30.0875C43.4565 30.0796 43.4554 30.0718 43.4543 30.064C43.489 30.0718 43.5237 30.0796 43.5584 30.0875C43.4576 29.4861 43.5584 28.7839 44.0626 28.1815C44.8693 27.3794 46.18 27.2795 47.0875 28.0816C47.1032 28.0954 47.1186 28.11 47.1339 28.1238C47.8035 28.8377 47.8552 29.9445 47.2892 30.7897C47.3383 30.7985 47.3874 30.8083 47.4366 30.8171C47.4215 30.8416 47.406 30.8661 47.39 30.8896L48.3013 31.0228C50.0727 31.2873 51.844 31.5517 53.6155 31.4028C52.0141 32.1021 50.7098 32.9013 49.3058 33.8984C47.5916 35.1021 45.7768 36.0051 43.7602 37.008C43.9933 36.9345 44.2253 36.8601 44.4563 36.7837C44.2935 36.8591 44.1287 36.9336 43.9618 37.008C46.0792 36.3057 48.2975 35.5036 50.4149 34.7005C53.3057 33.5683 56.6913 33.5135 60.2243 34.1275C64.7945 34.9551 69.6057 36.8738 73.9083 39.0138C73.8359 38.9609 73.7636 38.908 73.6911 38.8561C73.7974 38.908 73.9034 38.9609 74.0091 39.0138C70.7336 36.6309 67.2926 34.6261 63.6968 32.9405C59.8512 31.1041 55.8287 29.634 51.6432 28.4881C51.4181 28.2315 51.1902 27.9906 50.9598 27.7653C47.4704 24.2688 43.3794 24.3334 39.0211 26.8779C38.9242 26.9259 38.7885 26.9259 38.6269 26.8858C37.7291 26.6155 36.3727 25.399 35.8954 24.3707C33.6772 19.6568 29.7448 16.648 24.9049 14.1407C24.934 14.1897 24.9629 14.2387 24.9917 14.2876ZM11.2316 17.1945C11.1848 17.1798 11.1381 17.1651 11.0913 17.1495C12.3012 18.5539 14.1162 20.2591 16.032 21.7635C16.0663 21.7723 16.1005 21.7801 16.1349 21.7889C16.1677 21.8134 16.2006 21.8389 16.2336 21.8634C18.5621 22.4726 20.8904 22.5637 23.1963 22.6538C24.0219 22.6861 24.8447 22.7184 25.6636 22.7742C26.2874 22.8232 26.9083 22.8839 27.5266 22.9672L27.5229 22.9535C27.5577 22.9584 27.5926 22.9623 27.6274 22.9672L27.2241 21.4628C25.295 20.6097 23.3788 20.0466 21.4751 19.5941C20.1798 19.2758 18.8903 19.0113 17.6068 18.7469C16.0637 18.4296 14.5291 18.1152 13.003 17.7107C12.3982 17.5422 11.7943 17.3571 11.1921 17.1495C11.2053 17.1642 11.2184 17.1798 11.2316 17.1945ZM55.321 22.4775C55.3341 22.3736 55.3455 22.2688 55.3556 22.164C54.2129 24.0367 52.9021 25.7751 51.4232 27.3794L52.0282 27.8809L52.129 27.9817L53.0365 28.2824C54.4481 26.2766 55.2547 24.2708 55.4564 22.2649C55.4115 22.3354 55.3664 22.4069 55.321 22.4775ZM21.874 23.8349C20.0351 23.7321 18.3286 23.6371 17.2419 23.167C18.2502 24.4715 18.7543 25.875 21.0735 27.4803C21.1121 27.4607 21.1509 27.4421 21.1899 27.4235C21.218 27.4421 21.2464 27.4617 21.2751 27.4803C23.1909 26.4774 25.6108 26.2766 28.3332 26.4774L28.0306 24.8721C28.0011 24.8594 27.9714 24.8467 27.9415 24.8339L27.9298 24.7722C26.2151 24.0798 23.9595 23.9525 21.874 23.8349ZM28.434 27.781C28.0307 27.7144 27.661 27.6801 27.3249 27.6801C26.5997 27.6801 25.9559 27.8417 25.2471 28.0209L25.0058 28.0816C24.3855 28.2188 23.718 28.3559 23.0679 28.3647C22.8105 28.3608 22.5512 28.3353 22.2834 28.2824C22.2896 28.2903 22.2959 28.2991 22.3022 28.3069C22.2622 28.3001 22.2222 28.2912 22.1826 28.2824C22.7822 29.0483 23.5274 30.0326 24.6037 30.6193C24.8234 30.7584 25.0588 30.8837 25.3083 30.9905C26.6191 30.3882 27.7282 29.7868 28.6357 28.8838L28.5348 27.8809C28.5039 27.876 28.4731 27.8711 28.4426 27.8662L28.434 27.781ZM45.6282 27.9827C45.644 27.9827 45.6598 27.9817 45.6758 27.9817C46.0792 27.9817 46.4825 28.1815 46.7851 28.3823C47.39 28.9847 47.4908 30.0875 46.8859 30.6888C46.5266 31.1354 46.0053 31.2637 45.4687 31.2158C45.3703 31.2158 45.271 31.2069 45.1718 31.1903C44.9029 31.1237 44.6677 30.9905 44.4659 30.7897C43.7602 30.1874 43.7602 29.1845 44.3651 28.4832C44.5201 28.3285 44.7014 28.2011 44.909 28.113C45.107 28.0297 45.329 27.9817 45.575 27.9817C45.593 27.9817 45.6106 27.9827 45.6282 27.9827ZM45.7061 29.4401C45.8765 29.5175 46.0239 29.6223 46.0792 29.7868C46.18 29.8367 46.2605 29.8681 46.3235 29.8808C46.435 29.8514 46.5102 29.7045 46.5116 29.5165C46.5134 29.2687 46.3867 28.9465 46.0447 28.7232C45.3892 28.4959 44.801 29.2853 45.2726 29.2853L45.3098 29.2981C45.4443 29.3206 45.5861 29.3725 45.7061 29.4401ZM28.6496 30.3725C28.6451 30.3108 28.6405 30.2491 28.6357 30.1874C27.9298 30.8896 27.0224 31.4919 26.0141 31.6917C26.4379 32.0669 26.6418 32.7476 26.8517 33.4488C27.0912 34.249 27.3386 35.0756 27.9298 35.5036C27.996 35.5359 28.0621 35.5692 28.1355 35.5878C28.3074 35.6936 28.5033 35.6515 28.8373 35.4027C28.9045 33.7319 28.8709 32.0267 28.7365 30.2883C28.7078 30.3167 28.6789 30.3451 28.6496 30.3725ZM27.3151 47.2203C27.2803 47.0626 27.2499 46.901 27.2241 46.7355C27.1358 49.4563 27.5879 53.4826 29.7288 54.7823C30.0598 55.0115 30.4344 55.177 30.8539 55.2603C33.2738 55.6618 34.7863 52.5532 35.9962 49.8451C35.8691 49.9519 35.7417 50.0518 35.614 50.1478C35.6645 50.0351 35.7147 49.9235 35.7644 49.8118L35.7946 49.7442C33.8856 51.3867 31.8708 51.7422 30.264 51.0929C28.7742 50.422 27.6612 48.8863 27.3249 46.7355C27.3197 46.8932 27.3164 47.0548 27.3151 47.2203ZM26.6191 47.7884V47.6385C25.1067 49.8451 22.6867 51.1487 20.0652 52.0517C20.334 53.0546 20.5021 54.1242 20.5693 55.2603C20.5996 55.2377 20.6297 55.2142 20.6599 55.1917C20.6635 55.2475 20.6669 55.3043 20.6701 55.3612C23.1909 53.3553 25.5099 51.2486 26.7199 48.6414V47.6385C26.6868 47.6894 26.6532 47.7384 26.6191 47.7884ZM26.7474 50.2095L26.7199 50.0459C25.2075 53.1545 23.2917 54.7588 20.5693 56.1633C21.3759 57.1662 21.2751 58.3699 21.1743 59.5736C21.2112 59.5354 21.248 59.4972 21.2847 59.459C21.2815 59.4972 21.2783 59.5354 21.2751 59.5736C23.695 57.0663 25.7116 54.3582 27.1233 51.2486C26.9887 50.848 26.8879 50.4465 26.8207 50.0459C26.7965 50.1007 26.772 50.1556 26.7474 50.2095ZM35.7729 51.7932C35.7462 51.7461 35.7199 51.6982 35.6938 51.6502C35.5594 51.9841 35.4249 52.2858 35.2904 52.5532C35.9962 53.8568 36.7021 55.1604 37.912 56.1633C37.912 56.1378 37.9121 56.1124 37.9125 56.0869C37.9455 56.1124 37.979 56.1378 38.0128 56.1633C38.0128 55.6618 38.1136 55.0605 38.4161 54.4581C37.815 54.0997 37.2498 53.6335 36.7417 53.0605C36.3976 52.6727 36.0797 52.2359 35.7946 51.7501L35.7729 51.7932ZM27.3657 52.6717C27.3518 52.6325 27.3382 52.5924 27.3249 52.5532C25.51 56.1633 23.4934 58.7705 21.3759 60.5765C21.88 62.2807 22.1826 63.1837 22.2834 64.6881C22.3114 64.644 22.3395 64.5999 22.3674 64.5559C22.3733 64.6322 22.3789 64.7096 22.3842 64.788C24.8041 60.9771 26.8207 57.5678 28.0306 53.7559L27.4257 52.5532C27.4057 52.5933 27.3858 52.6325 27.3657 52.6717ZM34.9264 53.3377C34.9132 53.3103 34.9001 53.2819 34.8871 53.2544L34.2821 54.0576C35.0888 56.2632 36.0971 58.1691 37.307 59.5736C37.3163 59.509 37.3246 59.4443 37.3325 59.3797C37.3906 59.4453 37.4493 59.5099 37.5087 59.5736C37.5087 59.3238 37.5087 59.0741 37.5222 58.8204C37.5468 58.3591 37.6161 57.8841 37.8112 57.367C36.6012 56.2632 35.6938 54.8597 34.9879 53.2544C34.967 53.2819 34.9465 53.3103 34.9264 53.3377ZM33.9071 54.6619C33.8975 54.6276 33.8882 54.5933 33.8788 54.559L33.3747 55.0605C33.173 58.9713 34.6855 61.7792 36.6013 64.1866C36.6023 64.1768 36.6032 64.168 36.6042 64.1582C36.6367 64.2013 36.6693 64.2434 36.7021 64.2865C36.9037 63.1837 36.9037 62.1808 37.4078 61.2778C35.9962 59.2719 34.6855 57.1662 33.9796 54.559C33.9565 54.5933 33.9322 54.6276 33.9071 54.6619ZM28.6304 54.6736C28.5982 54.6364 28.5663 54.5982 28.5349 54.559L28.2951 55.1996C27.4823 57.3827 26.6429 59.6373 23.7958 64.3874C23.8611 65.4912 23.8841 66.5519 23.8649 67.5714C23.8544 68.1268 23.8314 68.6704 23.7958 69.2012C23.8348 69.116 23.8757 69.0318 23.9183 68.9485C23.9116 69.067 23.9045 69.1845 23.8966 69.3011C24.4008 68.0984 25.2075 67.2953 26.115 66.6939L29.5431 55.4611C29.5059 55.4385 29.4691 55.416 29.4328 55.3925L29.4423 55.3612C29.2375 55.2387 29.0452 55.0908 28.8654 54.9194C28.7856 54.8372 28.7103 54.752 28.6357 54.6589L28.6304 54.6736ZM32.8664 55.5365C32.8677 55.511 32.869 55.4865 32.8705 55.4611C32.6017 55.5952 32.2991 55.6951 31.963 55.7617L32.1647 68.9005C33.3333 69.7399 34.4392 70.6106 35.4825 71.5126C35.553 71.5772 35.6235 71.6429 35.6938 71.7085C35.761 69.7027 36.0634 67.7634 36.6012 65.8918C34.1813 62.5823 32.7697 59.0721 32.9713 55.4611C32.9364 55.4875 32.9014 55.513 32.8664 55.5365ZM31.2572 55.8626C30.9883 55.9292 30.6859 55.8959 30.3498 55.7617C29.4087 60.3091 28.0643 64.7547 26.3166 69.1013C27.2241 70.8055 27.9298 72.7114 28.1316 74.8171C28.1557 74.7593 28.1799 74.7006 28.2044 74.6428C28.2146 74.7339 28.224 74.8259 28.2324 74.918C28.9381 73.113 29.8456 71.5077 31.1564 70.1042C31.0555 65.4902 31.0555 60.8772 31.4589 55.9625C31.3897 55.9625 31.3205 55.9615 31.2513 55.9586C31.2533 55.9263 31.2553 55.8949 31.2572 55.8626Z" fill="url(#paint0_linear_1_595)"/>
<g id="&#208;&#159;&#208;&#190;&#208;&#187;&#208;&#184;&#208;&#179;&#209;&#128;&#208;&#176;&#209;&#132;&#208;&#184;&#209;&#135;&#208;&#181;&#209;&#129;&#208;&#186;&#208;&#176;&#209;&#143; &#208;&#186;&#208;&#190;&#208;&#188;&#208;&#191;&#208;&#176;&#208;&#189;&#208;&#184;&#209;&#143;">
<path d="M55.248 93.0679V98.71H54.1763V94.0377H52.103V98.71H51.0312V93.0679H55.248Z" fill="black"/>
<path d="M60.9928 95.889C60.9928 96.5042 60.8868 97.0277 60.6747 97.4593C60.4644 97.8909 60.1773 98.2205 59.8134 98.4483C59.4511 98.6742 59.0438 98.7871 58.5914 98.7871C58.1357 98.7871 57.7267 98.6733 57.3645 98.4455C57.0022 98.2178 56.7159 97.8881 56.5056 97.4565C56.2953 97.0249 56.1901 96.5024 56.1901 95.889C56.1901 95.2737 56.2953 94.7503 56.5056 94.3187C56.7159 93.8871 57.0022 93.5583 57.3645 93.3324C57.7267 93.1047 58.1357 92.9908 58.5914 92.9908C59.0438 92.9908 59.4511 93.1047 59.8134 93.3324C60.1773 93.5583 60.4644 93.8871 60.6747 94.3187C60.8868 94.7503 60.9928 95.2737 60.9928 95.889ZM59.8935 95.889C59.8935 95.4904 59.8392 95.1543 59.7307 94.8807C59.6239 94.607 59.4728 94.3995 59.2775 94.2581C59.0822 94.1166 58.8535 94.0459 58.5914 94.0459C58.3293 94.0459 58.1006 94.1166 57.9053 94.2581C57.71 94.3995 57.5581 94.607 57.4496 94.8807C57.3428 95.1543 57.2894 95.4904 57.2894 95.889C57.2894 96.2875 57.3428 96.6236 57.4496 96.8973C57.5581 97.1709 57.71 97.3785 57.9053 97.5199C58.1006 97.6613 58.3293 97.732 58.5914 97.732C58.8535 97.732 59.0822 97.6613 59.2775 97.5199C59.4728 97.3785 59.6239 97.1709 59.7307 96.8973C59.8392 96.6236 59.8935 96.2875 59.8935 95.889Z" fill="black"/>
<path d="M61.518 98.71V97.7513L61.6632 97.7375C61.8502 97.721 62.0012 97.6429 62.1164 97.5033C62.2316 97.3619 62.3176 97.1369 62.3743 96.8284C62.4328 96.518 62.4703 96.1011 62.487 95.5777L62.5721 93.0679H66.0527V98.71H64.9985V94.0239H63.5788L63.4986 95.9881C63.4719 96.6199 63.4035 97.136 63.2933 97.5364C63.1848 97.9368 63.0112 98.2325 62.7725 98.4235C62.5354 98.6145 62.2107 98.71 61.7984 98.71H61.518Z" fill="black"/>
<path d="M66.9466 93.0679H68.0283V96.6163H68.0709L70.2869 93.0679H71.236V98.71H70.1517V95.1589H70.1142L67.8856 98.71H66.9466V93.0679Z" fill="black"/>
<path d="M75.5347 93.0679V94.0514H73.216V98.71H72.1318V93.0679H75.5347Z" fill="black"/>
<path d="M76.2289 98.71V93.0679H78.2521C78.6411 93.0679 78.9725 93.1497 79.2462 93.3131C79.52 93.4747 79.7287 93.6997 79.8722 93.9881C80.0175 94.2746 80.0901 94.6052 80.0901 94.9798C80.0901 95.3545 80.0166 95.6851 79.8697 95.9716C79.7228 96.2581 79.51 96.4813 79.2312 96.6411C78.9541 96.8008 78.6186 96.8807 78.2246 96.8807H76.935V95.9248H78.0493C78.258 95.9248 78.4299 95.8853 78.5651 95.8063C78.702 95.7255 78.8039 95.6144 78.8706 95.473C78.9391 95.3297 78.9733 95.1653 78.9733 94.9798C78.9733 94.7925 78.9391 94.629 78.8706 94.4895C78.8039 94.348 78.702 94.2388 78.5651 94.1616C78.4283 94.0827 78.2546 94.0432 78.0443 94.0432H77.3131V98.71H76.2289Z" fill="black"/>
<path d="M81.086 98.71H79.9242L81.6945 93.0679H83.0917L84.8595 98.71H83.6977L82.4131 94.3572H82.3731L81.086 98.71ZM81.0134 96.4923H83.7578V97.4235H81.0134V96.4923Z" fill="black"/>
<path d="M87.264 93.674H88.4108C88.8215 93.674 89.1854 93.7695 89.5026 93.9605C89.8214 94.1515 90.071 94.4206 90.2513 94.7677C90.4332 95.113 90.5242 95.5189 90.5242 95.9854C90.5242 96.4372 90.4332 96.8311 90.2513 97.1672C90.071 97.5033 89.8214 97.7651 89.5026 97.9524C89.1854 98.1379 88.8215 98.2306 88.4108 98.2306H87.264C86.8517 98.2306 86.4861 98.1388 86.1673 97.9552C85.8484 97.7697 85.598 97.5089 85.4161 97.1728C85.2358 96.8367 85.1456 96.4399 85.1456 95.9826C85.1456 95.5161 85.2366 95.1102 85.4186 94.765C85.6022 94.4178 85.8534 94.1497 86.1723 93.9605C86.4911 93.7695 86.855 93.674 87.264 93.674ZM87.264 94.6713C87.0437 94.6713 86.8492 94.72 86.6806 94.8173C86.5136 94.9128 86.3834 95.0579 86.2899 95.2526C86.1965 95.4473 86.1497 95.6906 86.1497 95.9826C86.1497 96.2618 86.1973 96.4941 86.2925 96.6796C86.3893 96.8651 86.5211 97.0038 86.6881 97.0956C86.855 97.1875 87.047 97.2334 87.264 97.2334H88.4183C88.637 97.2334 88.8282 97.1865 88.9918 97.0929C89.157 96.9992 89.2847 96.8596 89.3749 96.6741C89.4667 96.4886 89.5126 96.259 89.5126 95.9854C89.5126 95.6934 89.4667 95.45 89.3749 95.2553C89.2847 95.0607 89.157 94.9146 88.9918 94.8173C88.8282 94.72 88.637 94.6713 88.4183 94.6713H87.264ZM88.3507 92.9688V98.9414H87.3216V92.9688H88.3507Z" fill="black"/>
<path d="M91.323 93.0679H92.4047V96.6163H92.4473L94.6633 93.0679H95.6123V98.71H94.5281V95.1589H94.4905L92.262 98.71H91.323V93.0679Z" fill="black"/>
<path d="M96.7159 93.0679H97.7701V94.8862C97.7701 95.1029 97.8043 95.2774 97.8728 95.4096C97.9412 95.54 98.0472 95.6346 98.1908 95.6934C98.336 95.7503 98.5222 95.7788 98.7492 95.7788C98.8293 95.7788 98.9236 95.776 99.0321 95.7705C99.1406 95.7632 99.2525 95.7531 99.3677 95.7402C99.4845 95.7273 99.5947 95.7117 99.6982 95.6934C99.8017 95.675 99.8877 95.6539 99.9561 95.63V96.5722C99.886 96.5979 99.7984 96.6209 99.6932 96.6411C99.5897 96.6594 99.4803 96.676 99.3652 96.6906C99.25 96.7035 99.1381 96.7136 99.0296 96.721C98.9211 96.7283 98.8276 96.732 98.7492 96.732C98.3369 96.732 97.978 96.6677 97.6725 96.5391C97.367 96.4087 97.1308 96.2076 96.9638 95.9358C96.7986 95.664 96.7159 95.3141 96.7159 94.8862V93.0679ZM99.7683 93.0679H100.827V98.71H99.7683V93.0679Z" fill="black"/>
<path d="M101.9 98.71V93.0679H105.355V94.0514H102.984V95.3958H105.178V96.3793H102.984V97.7265H105.365V98.71H101.9Z" fill="black"/>
<path d="M110.742 95.0432H109.645C109.625 94.8871 109.584 94.7484 109.523 94.6272C109.461 94.5042 109.382 94.3995 109.285 94.3132C109.188 94.2268 109.076 94.1607 108.949 94.1148C108.824 94.0689 108.688 94.0459 108.541 94.0459C108.276 94.0459 108.044 94.1185 107.847 94.2636C107.65 94.4068 107.498 94.6162 107.389 94.8917C107.281 95.1653 107.226 95.4978 107.226 95.889C107.226 96.2912 107.281 96.6291 107.389 96.9028C107.499 97.1764 107.653 97.383 107.85 97.5226C108.047 97.6622 108.275 97.732 108.534 97.732C108.679 97.732 108.813 97.7109 108.937 97.6686C109.062 97.6264 109.173 97.5649 109.27 97.4841C109.367 97.4014 109.447 97.3013 109.51 97.1838C109.575 97.0662 109.62 96.9322 109.645 96.7816L110.742 96.7871C110.714 97.046 110.643 97.2958 110.529 97.5364C110.417 97.7752 110.266 97.9891 110.076 98.1783C109.887 98.3656 109.662 98.5144 109.4 98.6246C109.139 98.733 108.845 98.7871 108.516 98.7871C108.059 98.7871 107.65 98.6733 107.289 98.4455C106.93 98.2178 106.646 97.8881 106.438 97.4565C106.231 97.0249 106.127 96.5024 106.127 95.889C106.127 95.2737 106.232 94.7503 106.443 94.3187C106.653 93.8871 106.938 93.5583 107.299 93.3324C107.66 93.1047 108.065 92.9908 108.516 92.9908C108.813 92.9908 109.089 93.0367 109.342 93.1285C109.598 93.2204 109.824 93.3544 110.021 93.5308C110.218 93.7052 110.378 93.9192 110.502 94.1726C110.627 94.4261 110.707 94.7163 110.742 95.0432Z" fill="black"/>
<path d="M114.622 98.71L112.974 96.305H112.604V98.71H111.52V93.0679H112.604V95.3215H112.822L114.524 93.0679H115.874L113.873 95.6851L115.967 98.71H114.622Z" fill="black"/>
<path d="M117.396 98.71H116.234L118.004 93.0679H119.401L121.169 98.71H120.007L118.723 94.3572H118.683L117.396 98.71ZM117.323 96.4923H120.068V97.4235H117.323V96.4923Z" fill="black"/>
<path d="M125.723 98.71H124.641V94.0432H123.91C123.701 94.0432 123.528 94.0771 123.389 94.1451C123.252 94.2112 123.15 94.3086 123.081 94.4371C123.013 94.5657 122.978 94.7236 122.978 94.911C122.978 95.0965 123.013 95.2517 123.081 95.3765C123.15 95.5014 123.252 95.5951 123.389 95.6576C123.526 95.72 123.698 95.7512 123.905 95.7512H125.082V96.7099H123.73C123.337 96.7099 123.002 96.6383 122.723 96.495C122.444 96.3518 122.231 96.1461 122.085 95.8779C121.938 95.608 121.864 95.2856 121.864 94.911C121.864 94.5381 121.936 94.214 122.079 93.9385C122.225 93.6612 122.434 93.4472 122.708 93.2966C122.983 93.1441 123.315 93.0679 123.702 93.0679H125.723V98.71ZM122.956 96.1424H124.125L122.878 98.71H121.681L122.956 96.1424Z" fill="black"/>
<path d="M131.348 98.71L129.7 96.305H129.33V98.71H128.246V93.0679H129.33V95.3215H129.548L131.25 93.0679H132.6L130.599 95.6851L132.693 98.71H131.348Z" fill="black"/>
<path d="M137.661 95.889C137.661 96.5042 137.555 97.0277 137.343 97.4593C137.133 97.8909 136.846 98.2205 136.482 98.4483C136.12 98.6742 135.712 98.7871 135.26 98.7871C134.804 98.7871 134.395 98.6733 134.033 98.4455C133.671 98.2178 133.384 97.8881 133.174 97.4565C132.964 97.0249 132.859 96.5024 132.859 95.889C132.859 95.2737 132.964 94.7503 133.174 94.3187C133.384 93.8871 133.671 93.5583 134.033 93.3324C134.395 93.1047 134.804 92.9908 135.26 92.9908C135.712 92.9908 136.12 93.1047 136.482 93.3324C136.846 93.5583 137.133 93.8871 137.343 94.3187C137.555 94.7503 137.661 95.2737 137.661 95.889ZM136.562 95.889C136.562 95.4904 136.508 95.1543 136.399 94.8807C136.292 94.607 136.141 94.3995 135.946 94.2581C135.751 94.1166 135.522 94.0459 135.26 94.0459C134.998 94.0459 134.769 94.1166 134.574 94.2581C134.378 94.3995 134.227 94.607 134.118 94.8807C134.011 95.1543 133.958 95.4904 133.958 95.889C133.958 96.2875 134.011 96.6236 134.118 96.8973C134.227 97.1709 134.378 97.3785 134.574 97.5199C134.769 97.6613 134.998 97.732 135.26 97.732C135.522 97.732 135.751 97.6613 135.946 97.5199C136.141 97.3785 136.292 97.1709 136.399 96.8973C136.508 96.6236 136.562 96.2875 136.562 95.889Z" fill="black"/>
<path d="M138.464 93.0679H139.802L141.214 96.8587H141.274L142.686 93.0679H144.023V98.71H142.972V95.0377H142.929L141.602 98.6825H140.886L139.559 95.0239H139.516V98.71H138.464V93.0679Z" fill="black"/>
<path d="M149.276 93.0679V98.71H148.204V94.0377H146.131V98.71H145.059V93.0679H149.276Z" fill="black"/>
<path d="M151.192 98.71H150.03L151.801 93.0679H153.198L154.966 98.71H153.804L152.519 94.3572H152.479L151.192 98.71ZM151.12 96.4923H153.864V97.4235H151.12V96.4923Z" fill="black"/>
<path d="M155.583 98.71V93.0679H156.667V95.3958H158.868V93.0679H159.95V98.71H158.868V96.3793H156.667V98.71H155.583Z" fill="black"/>
<path d="M160.844 93.0679H161.926V96.6163H161.968L164.184 93.0679H165.133V98.71H164.049V95.1589H164.011L161.783 98.71H160.844V93.0679Z" fill="black"/>
<path d="M169.965 98.71H168.883V94.0432H168.152C167.944 94.0432 167.77 94.0771 167.631 94.1451C167.495 94.2112 167.392 94.3086 167.323 94.4371C167.255 94.5657 167.221 94.7236 167.221 94.911C167.221 95.0965 167.255 95.2517 167.323 95.3765C167.392 95.5014 167.495 95.5951 167.631 95.6576C167.768 95.72 167.94 95.7512 168.147 95.7512H169.324V96.7099H167.972C167.58 96.7099 167.244 96.6383 166.965 96.495C166.687 96.3518 166.474 96.1461 166.327 95.8779C166.18 95.608 166.107 95.2856 166.107 94.911C166.107 94.5381 166.178 94.214 166.322 93.9385C166.467 93.6612 166.677 93.4472 166.95 93.2966C167.226 93.1441 167.557 93.0679 167.944 93.0679H169.965V98.71ZM167.198 96.1424H168.368L167.121 98.71H165.924L167.198 96.1424Z" fill="black"/>
</g>
<path id="Union_2" fill-rule="evenodd" clip-rule="evenodd" d="M75.9009 75.782V44.9297H70.5176V75.782H75.9009ZM49.9922 49.4052V75.782H55.4693V64.3003H66.0015V59.8794H55.4693V53.8339H68.1345V49.4052H49.9922ZM81.2608 84.5144C80.581 84.5144 79.9403 84.4598 79.3387 84.3504C78.7527 84.2567 78.2605 84.1239 77.8776 83.9677L79.0887 80.0311C79.7216 80.2185 80.2919 80.3201 80.7998 80.3357C81.3076 80.3513 81.753 80.242 82.1202 79.992C82.5031 79.7421 82.8078 79.3203 83.05 78.7267L83.3625 77.9222L76.5728 55.7553H82.2374L85.9956 70.1974L89.5194 55.7553H95.223L88.4958 79.4375C88.363 79.8202 88.2145 80.1795 88.0426 80.5231C87.7536 81.1011 87.4098 81.6323 87.0191 82.1087C86.4019 82.882 85.6205 83.4678 84.6751 83.8818C83.7376 84.3035 82.5968 84.5144 81.2608 84.5144ZM96.8794 55.7553V84.9206H102.263V71.7361H102.427C102.591 72.0954 102.81 72.4469 103.075 72.7983L103.489 73.306C103.95 73.8215 104.544 74.2511 105.271 74.587C106.005 74.9229 107.896 75.0947 108.943 75.0947C110.412 75.0947 112.748 74.7198 113.936 73.9778C115.131 73.2279 116.077 72.1266 116.764 70.6738C117.467 69.2054 117.819 67.4168 117.819 65.2922C117.819 64.4877 117.772 63.7301 117.67 63.0271C117.584 62.4179 117.467 61.8477 117.311 61.3166C117.225 61.0276 117.131 60.7464 117.022 60.473L116.741 59.856C116.022 58.4032 115.069 57.3097 113.873 56.5911C112.678 55.8647 110.365 55.5054 108.951 55.5054C108.615 55.5054 108.201 55.521 107.771 55.5523L107.232 55.6069L106.458 55.7163C105.951 55.8022 105.505 55.9116 105.224 56.0522C104.904 56.2084 104.615 56.3802 104.349 56.5677C104.005 56.8098 103.708 57.0832 103.45 57.3878C103.005 57.9189 102.661 58.4344 102.427 58.9499H102.185V55.7553H96.8794ZM102.63 68.2291C102.31 67.3855 102.146 66.4014 102.146 65.2688C102.146 64.1363 102.31 63.1521 102.63 62.3164C102.95 61.4884 103.411 60.8401 104.005 60.3871C104.49 60.0278 105.669 59.6763 106.576 59.5514C106.81 59.5201 107.021 59.5045 107.201 59.5045L107.732 59.5279C108.115 59.5514 108.529 59.606 108.912 59.6998C109.342 59.8013 109.732 59.9497 109.998 60.1528C110.607 60.6214 111.56 61.6915 111.873 62.5272C112.186 63.363 112.342 64.3315 112.342 65.4328C112.342 66.5341 112.186 67.5183 111.865 68.3619C111.553 69.2054 111.193 69.7209 110.592 70.1974C110.342 70.3926 110.099 70.5723 109.795 70.7129C109.56 70.8222 109.287 70.9081 108.959 70.9706C108.677 71.0175 108.349 71.0487 107.959 71.0487C106.513 71.0566 104.63 70.666 104.021 70.1974C103.802 70.0333 103.607 69.8459 103.427 69.6272C103.294 69.471 103.169 69.2991 103.052 69.1117C102.888 68.8461 102.747 68.5571 102.63 68.2291ZM118.21 55.7553H123.429V59.0749H123.632C123.984 57.8877 124.577 56.9973 125.413 56.3958C126.249 55.7866 127.21 55.482 128.296 55.482C128.562 55.482 128.859 55.4976 129.164 55.5288C129.476 55.5601 129.75 55.6069 129.992 55.6616V60.3481L129.531 60.2387L128.937 60.1528C128.492 60.0903 128.085 60.0669 127.71 60.0669C126.921 60.0669 126.21 60.2309 125.593 60.5746L125.257 60.7776L125.07 60.9104C124.687 61.1916 124.374 61.5431 124.124 61.9571C123.952 62.2461 123.819 62.5585 123.734 62.8943C123.64 63.2458 123.593 63.6207 123.593 64.0191V74.7823H118.21V55.7553ZM136.063 55.7553H130.672V74.7823H136.063V55.7553ZM144.657 63.7848V74.7823H139.274V55.7553H144.407V59.1061H144.634C144.767 58.7703 144.923 58.45 145.111 58.1532C145.251 57.9345 145.4 57.7315 145.572 57.5362C145.915 57.1378 146.322 56.7864 146.798 56.4817C147.806 55.8335 149.033 55.5054 150.478 55.5054C151.822 55.5054 153.002 55.7944 154.002 56.3724C155.002 56.9504 155.783 57.7783 156.338 58.8484C156.541 59.2389 156.705 59.6529 156.838 60.0903C157.065 60.8636 157.174 61.7227 157.174 62.6678V74.7823H151.791V63.6051C151.791 63.0818 151.736 62.6132 151.611 62.1914C151.463 61.6759 151.22 61.2385 150.877 60.8792C150.267 60.2231 149.416 59.8872 148.337 59.8872C147.611 59.8872 146.97 60.0434 146.415 60.3481C146.142 60.4965 145.9 60.6839 145.689 60.9026L145.486 61.1291L145.267 61.4494L145.126 61.6837C144.821 62.2617 144.665 62.9646 144.657 63.7848ZM170.652 59.7154V55.7553H166.995V51.1939H161.612V55.7553H158.956V59.7154H161.612V69.6272C161.604 70.8769 161.87 71.9079 162.409 72.728C162.948 73.5482 163.698 74.1496 164.667 74.5401C165.003 74.6729 165.355 74.7745 165.722 74.8604C165.995 74.9229 166.284 74.9697 166.581 75.001C166.886 75.0322 167.206 75.0478 167.527 75.0556L168.081 75.0478C168.785 75.0166 169.378 74.9463 169.863 74.8369L170.3 74.7354L171.004 74.5479L170.16 70.6192L169.574 70.7285L169.167 70.7832L168.816 70.791C168.456 70.791 168.136 70.7441 167.855 70.6348C167.589 70.5254 167.378 70.338 167.222 70.0724C167.159 69.9552 167.105 69.8146 167.066 69.6506C167.019 69.4475 166.995 69.2054 166.995 68.932V59.7154H170.652ZM136 48.9288H131V53.9276H136V48.9288Z" fill="black"/>
</g>
<defs>
<linearGradient id="paint0_linear_1_595" x1="37.0046" y1="0" x2="37.0046" y2="74.918" gradientUnits="userSpaceOnUse">
<stop stop-color="#1C7CAF"/>
<stop offset="0.333333" stop-color="#0EB297"/>
<stop offset="0.614583" stop-color="#F9B016"/>
<stop offset="1" stop-color="#CB5730"/>
</linearGradient>
</defs>
</svg>
