<svg  xmlns="http://www.w3.org/2000/svg" width="49" height="49" viewBox="0 0 49 49" fill="none">
    <ellipse cx="24.411" cy="24.5" rx="24.411" ry="24.5" transform="matrix(-1 0 0 1 48.822 0)" fill="#4B729C"/>
    <path d="M28.5987 31.5186C28.1622 31.2078 27.7365 30.7007 27.3317 30.2184C26.7167 29.4858 26.1499 28.8106 25.6664 28.968C25.6664 28.968 24.8417 29.2408 24.8646 31.0678L28.5987 31.5186ZM28.5987 31.5186L28.0201 32.3342L28.0186 32.3332C27.6503 32.0709 27.3199 31.7295 27.0426 31.4181C26.8853 31.2415 26.7054 31.0276 26.5429 30.8344C26.4398 30.7118 26.3437 30.5975 26.2647 30.5062C26.1484 30.3719 26.0481 30.2617 25.9613 30.173C25.9075 30.3553 25.8598 30.6346 25.8644 31.0485M28.5987 31.5186C28.0201 32.3342 28.0203 32.3343 28.0204 32.3345L28.0208 32.3347L28.0217 32.3354L28.0236 32.3367L28.0285 32.3401L28.042 32.3495C28.0526 32.3568 28.0665 32.3662 28.0835 32.3774C28.1173 32.3998 28.1636 32.4296 28.2202 32.464C28.3321 32.532 28.491 32.6218 28.6786 32.7078C28.9838 32.8478 29.5514 33.0673 30.1569 32.9799M28.5987 31.5186C28.5987 31.5186 29.4348 32.1117 30.0648 31.9812M28.5987 31.5186L30.0648 31.9812M25.8644 31.0485C25.8732 31.4056 25.7941 31.6989 25.7004 31.9151C25.6535 32.023 25.6034 32.1111 25.5594 32.1786C25.5374 32.2125 25.5167 32.2415 25.4985 32.2657C25.4894 32.2777 25.4808 32.2887 25.473 32.2984L25.4617 32.3121L25.4565 32.3183L25.454 32.3212L25.4528 32.3227L25.4522 32.3234C25.4519 32.3237 25.4516 32.3241 24.6927 31.6728M25.8644 31.0485L19.6618 22.0353C19.6976 22.8768 19.6718 23.47 19.6261 23.8802C19.3892 23.545 19.0912 23.0352 18.7371 22.2798L18.7236 22.2509L18.7083 22.2232L18.7083 22.2231L18.7083 22.2231L18.7082 22.223L18.7082 22.223L18.7073 22.2213L18.7027 22.2129L18.683 22.1763C18.6653 22.1435 18.639 22.094 18.6055 22.0302C18.5385 21.9024 18.4433 21.7173 18.3323 21.4917C18.1101 21.0399 17.8297 20.436 17.5867 19.8103C17.4864 19.5426 17.341 19.3443 17.224 19.2141C17.1637 19.147 17.1074 19.0939 17.0618 19.0544C17.0389 19.0345 17.0182 19.0177 17.0006 19.0039C16.9942 18.9989 16.9882 18.9943 16.9826 18.9901C16.9772 18.986 16.9714 18.9815 16.965 18.9768C16.948 18.9641 16.9271 18.9491 16.9025 18.9323C16.8535 18.899 16.788 18.8577 16.7081 18.815C16.552 18.7316 16.3189 18.6308 16.0303 18.5848L15.9484 18.5717L15.8654 18.5724L12.7302 18.5961C12.3281 18.5967 12.0009 18.6931 11.748 18.8313C11.6242 18.899 11.5255 18.9727 11.4493 19.0409C11.4113 19.0749 11.379 19.1074 11.352 19.1368C11.3385 19.1516 11.3264 19.1656 11.3154 19.1787L11.3141 19.1804C11.3116 19.1833 11.3092 19.1863 11.3067 19.1893C11.2948 19.2038 11.2822 19.2198 11.2693 19.2374C11.2434 19.2726 11.2156 19.3144 11.188 19.3628C11.1327 19.4601 11.0785 19.5841 11.0428 19.7341C10.9682 20.0479 10.991 20.4064 11.1448 20.7818L11.1451 20.7827C12.3992 23.8356 13.7442 26.1342 14.7828 27.6772C15.3021 28.4487 15.745 29.0316 16.0619 29.4257C16.2203 29.6228 16.3473 29.7727 16.4367 29.8755C16.4814 29.9269 16.5166 29.9665 16.5417 29.9943L16.5716 30.0272L16.5807 30.037L16.5822 30.0386L16.5827 30.0391L16.5837 30.0403L16.5838 30.0404L16.5848 30.0415L16.5853 30.042L16.5868 30.0436L16.5957 30.0531L16.6246 30.0835C16.6488 30.1086 16.6827 30.1434 16.7259 30.1864C16.8121 30.2722 16.9355 30.3912 17.0918 30.5318C17.4032 30.812 17.8512 31.1834 18.4008 31.5498C19.4677 32.2612 21.0422 33.0375 22.7994 32.9338H24.0857H24.13L24.1741 32.9299C24.5491 32.8966 24.8445 32.7727 25.0528 32.6482C25.1563 32.5863 25.2388 32.524 25.3008 32.4715C25.3318 32.4452 25.3581 32.421 25.3796 32.4001C25.3904 32.3896 25.4 32.3799 25.4085 32.3712L25.4204 32.3587L25.4257 32.3531L25.4282 32.3504L25.4294 32.349L25.43 32.3484C25.4303 32.3481 25.4306 32.3477 24.6927 31.6728M25.8644 31.0485L31.6226 27.9715L32.3158 27.2507C32.316 27.251 32.3163 27.2512 32.3166 27.2515C33.2304 28.1304 33.8014 28.8002 34.1594 29.2824C34.3389 29.5241 34.4646 29.7184 34.553 29.8679C34.636 30.0081 34.699 30.1344 34.6917 30.1208L34.6949 30.1268L34.708 30.1519C34.718 30.1713 34.7304 30.1963 34.7444 30.2263C34.7722 30.2855 34.8076 30.367 34.8424 30.4646C34.9072 30.6459 34.9935 30.9461 34.9831 31.2891C34.9722 31.6536 34.8457 32.1235 34.4236 32.4817C34.0283 32.8173 33.5186 32.9292 33.0094 32.9337M24.6927 31.6728L25.4516 32.3241L25.4413 32.3361L25.4306 32.3477L24.6927 31.6728ZM26.6955 22.239L26.6995 22.2317L26.7196 22.1949C26.7376 22.1617 26.7647 22.1114 26.7991 22.0462C26.868 21.9156 26.9661 21.7254 27.0807 21.4915C27.3101 21.0236 27.6006 20.3903 27.8542 19.7153C27.9605 19.4193 28.1257 19.2061 28.2687 19.065C28.3411 18.9936 28.4096 18.9388 28.4659 18.8985C28.4943 18.8782 28.52 18.8612 28.5423 18.8473C28.5535 18.8404 28.5639 18.8342 28.5733 18.8286L26.6955 22.239ZM26.6955 22.239C26.3514 22.8456 26.0682 23.2926 25.8393 23.6193C25.8406 23.5713 25.842 23.5204 25.8436 23.4678C25.8481 23.3111 25.8531 23.1397 25.8531 22.9889C25.8531 22.4331 25.8716 21.9524 25.8882 21.5214C25.8897 21.4824 25.8912 21.4438 25.8926 21.4056C25.9095 20.9633 25.9247 20.5302 25.8977 20.1596C25.8711 19.7944 25.797 19.3496 25.5318 18.9573C25.2401 18.5258 24.817 18.2981 24.3747 18.1872L24.367 18.1852L24.3592 18.1834C23.9287 18.0827 23.5929 18.0157 22.5979 18.003L22.5952 18.003C22.0084 17.9971 21.4224 17.9961 20.9052 18.0372C20.4077 18.0767 19.8577 18.1617 19.397 18.3949C19.0525 18.5683 18.7683 18.8327 18.5873 19.0809C18.5095 19.1875 18.3727 19.395 18.3231 19.6625C18.2982 19.7968 18.27 20.0832 18.4351 20.3836C18.6235 20.726 18.9415 20.8747 19.1962 20.9155C19.2698 20.9277 19.3586 20.9475 19.4369 20.9805C19.4583 20.9895 19.4748 20.9977 19.4872 21.0047C19.4971 21.0316 19.5084 21.0651 19.5206 21.1051C19.5735 21.2796 19.6424 21.585 19.6617 22.035L26.6955 22.239ZM30.1569 32.9799L33.0094 32.9337M30.1569 32.9799L30.081 32.9811L30.0648 31.9812M30.1569 32.9799C30.1937 32.9746 30.2306 32.9681 30.2676 32.9605L30.0648 31.9812M33.0094 32.9337C33.0079 32.9337 33.0063 32.9337 33.0048 32.9338L32.9971 31.9338M33.0094 32.9337L33.0133 32.9337L32.9971 31.9338M32.9971 31.9338L30.0648 31.9812M32.9971 31.9338C34.5434 31.9219 33.8104 30.5933 33.8104 30.5933M30.0648 31.9812L33.8104 30.5933M33.8104 30.5933L34.6916 30.1206L34.6899 30.1174L34.6878 30.1135L34.6868 30.1118L34.6864 30.1109C34.6861 30.1106 34.6859 30.1102 33.8104 30.5933ZM34.2938 18.8698C33.8949 18.6219 33.3783 18.5248 32.7495 18.5965L32.2526 23.4279C33.6042 21.5654 34.1425 20.4265 33.9707 19.9401C34.9181 19.62 34.9178 19.619 34.9175 19.6181L34.9168 19.6163L34.9155 19.6125L34.9155 19.6123C34.9149 19.6106 34.9142 19.6088 34.9136 19.607L34.9129 19.6049L34.907 19.5889C34.9029 19.5779 34.8984 19.5663 34.8934 19.5541C34.8833 19.5297 34.8714 19.503 34.8571 19.4744C34.8286 19.4172 34.7909 19.352 34.7412 19.2832C34.6405 19.1434 34.4955 18.9951 34.2938 18.8698ZM31.4198 26.3248C31.3964 26.2918 31.3893 26.278 31.3888 26.2782C31.3881 26.2785 31.4092 26.3243 31.3968 26.3849C31.3965 26.3863 31.4002 26.3684 31.4198 26.3248ZM25.6576 29.9148C25.6575 29.9145 25.661 29.916 25.6682 29.9202C25.6613 29.9172 25.6577 29.9151 25.6576 29.9148Z" stroke="white" stroke-width="2"/>
</svg>